<svg xmlns="http://www.w3.org/2000/svg" viewBox="0 0 41.45 59.53"><defs><style>.cls-1{fill:#4a3a00;}</style></defs><g id="Layer_2" data-name="Layer 2"><g id="레이어_1" data-name="레이어 1"><path class="cls-1" d="M3.89,21.22C1.79,28.32,0,34.31,0,48.56,0,52,.78,57.21,3.89,58.82c2.53,1.3,5.7.52,7.79,0A25.33,25.33,0,0,0,23.36,52C33.58,42,38.93,31.47,38.93,24.64,38.93,17,35.1,13.78,27.25,11,14.63,6.44,6.12,13.74,3.89,21.22Z"/><path class="cls-1" d="M19.3,13.82S23-.67,27.09,0s8,17.78.16,17.78S19.3,13.82,19.3,13.82Z"/><path class="cls-1" d="M23.36,14.38s8.73-11.68,16-11-7.31,20.47-7.78,17.43S23.36,14.38,23.36,14.38Z"/></g></g></svg>