<svg xmlns="http://www.w3.org/2000/svg" viewBox="0 0 842.86 531"><defs><style>.cls-1{fill:#ffe7e0;}.cls-2{fill:#ff940a;}.cls-2,.cls-3,.cls-7,.cls-8{stroke:#000;stroke-miterlimit:10;}.cls-2,.cls-7,.cls-8{stroke-width:0.5px;}.cls-3{stroke-width:0.25px;}.cls-4{fill:#4a3a00;}.cls-5{fill:#ffb4c9;}.cls-6{opacity:0.5;}.cls-7,.cls-8{fill:none;}.cls-8{stroke-dasharray:1 1;}</style></defs><g id="Layer_2" data-name="Layer 2"><g id="레이어_1" data-name="레이어 1"><rect class="cls-1" x="0.5" y="0.5" width="841.86" height="530"/><path d="M841.86,1V530H1V1H841.86m1-1H0V531H842.86V0Z"/><ellipse class="cls-2" cx="420.64" cy="56.03" rx="85.72" ry="35.14"/><path class="cls-3" d="M360.38,54.79h7a2.87,2.87,0,0,0,2.87-2.87V44.43h2.14v7.49a2.88,2.88,0,0,0,2.88,2.87h7v2.14h-7a2.88,2.88,0,0,0-2.88,2.87v7.69h-2.14V59.8a2.87,2.87,0,0,0-2.87-2.87h-7Z"/><path d="M387,55.66c0-4.32.72-5.86,2.16-8a7.7,7.7,0,0,1,12.56,0c1.35,2.15,2,3.7,2,8.1s-.73,5.86-2.18,8A7.22,7.22,0,0,1,395.12,67a7.42,7.42,0,0,1-3.74-.88,6.85,6.85,0,0,1-2.52-2.55,12.76,12.76,0,0,1-1.42-4.09A13.81,13.81,0,0,1,387,55.66Zm3.45,0a15.18,15.18,0,0,0,.26,3,15.35,15.35,0,0,0,.81,3.64A5.89,5.89,0,0,0,393,64.67a3,3,0,0,0,2.14.83,4.08,4.08,0,0,0,4-2.8c.78-1.87,1.17-3.06,1.17-7a18.35,18.35,0,0,0-.21-3,14.27,14.27,0,0,0-.8-3.63,5.64,5.64,0,0,0-1.53-2.33,3.51,3.51,0,0,0-2.39-.83,3.87,3.87,0,0,0-3.8,2.78C390.81,50.56,390.44,51.74,390.44,55.69Z"/><path d="M411.8,45.15c.94-.21,1.85-.39,2.74-.54h.9V64.78l.67.86v.9h-4.57v-.9l.66-.86V47.13l-1-.29"/><path d="M419.05,56.59V55.48L429.48,45.3l2.62,1.59-5.57,5.43-3.1,3.16,1.35,1.11,8.48,7.15-2.1,2.52Z"/><path d="M441.1,45.43c.94-.21,1.85-.39,2.74-.54h.9V65.06l.68.86v.9h-4.58v-.9l.66-.86V47.41l-1-.29"/><path d="M448.35,56.87V55.76l10.44-10.18,2.61,1.59-5.57,5.43-3.1,3.16,3.06,2.83L462.56,64l-2.1,2.52Z"/><path d="M471.64,45.45c.94-.21,1.85-.39,2.74-.54h.9V65.08l.68.86v.9h-4.58v-.9l.66-.86V47.43l-1-.29"/><path d="M396.64,153.27a5.19,5.19,0,0,1,.79.25,3.43,3.43,0,0,1,.66.47,4,4,0,0,1,.57.64,5.86,5.86,0,0,1,.45.87,6.27,6.27,0,0,1,.35,1.06,10.07,10.07,0,0,1,.2,1.33,15,15,0,0,1,.08,1.55,15.35,15.35,0,0,1-.08,1.59,9.06,9.06,0,0,1-.2,1.31,6.07,6.07,0,0,1-.35,1.09,5.46,5.46,0,0,1-.45.84,3.77,3.77,0,0,1-.57.66,2.34,2.34,0,0,1-.66.43,3.18,3.18,0,0,1-.79.26,4.74,4.74,0,0,1-.86.08,4.79,4.79,0,0,1-.88-.08,2.62,2.62,0,0,1-.76-.26,2.4,2.4,0,0,1-.7-.43,2.76,2.76,0,0,1-.55-.66,3.75,3.75,0,0,1-.47-.84,8.37,8.37,0,0,1-.32-1.09,9.06,9.06,0,0,1-.2-1.31,15.51,15.51,0,0,1-.07-1.59,15.1,15.1,0,0,1,.07-1.55,10.07,10.07,0,0,1,.2-1.33,8.87,8.87,0,0,1,.32-1.06,4,4,0,0,1,.47-.87,2.86,2.86,0,0,1,.55-.64,3.43,3.43,0,0,1,.7-.47,4,4,0,0,1,.76-.25,4.79,4.79,0,0,1,.88-.08A4.74,4.74,0,0,1,396.64,153.27Zm-1.1,2.6-.22.08a.85.85,0,0,0-.22.2,1.07,1.07,0,0,0-.18.32,2,2,0,0,0-.15.47c0,.19-.07.39-.11.61a6.67,6.67,0,0,0-.08.84q0,.48,0,1.05t0,1.08a5.53,5.53,0,0,0,.08.81c0,.25.07.46.11.64a2.07,2.07,0,0,0,.15.46,1.07,1.07,0,0,0,.18.32.42.42,0,0,0,.22.18.44.44,0,0,0,.22.1,1,1,0,0,0,.24,0,.76.76,0,0,0,.21,0,.62.62,0,0,0,.24-.1.54.54,0,0,0,.2-.18,1.36,1.36,0,0,0,.2-.32c0-.12.09-.28.14-.46a6,6,0,0,0,.13-.64,7.37,7.37,0,0,0,.08-.81c0-.31,0-.67,0-1.08s0-.73,0-1.05,0-.59-.08-.84-.08-.42-.13-.61-.1-.35-.14-.47a1.36,1.36,0,0,0-.2-.32,1.89,1.89,0,0,0-.2-.2l-.24-.08a.52.52,0,0,0-.21,0A.67.67,0,0,0,395.54,155.87ZM401,166.15V153.27h3v12.88Z"/><path d="M419.82,161.67H406.58v-1.84h13.24Zm-.79,4.48H407.27v-4H419Zm-11.74-10.71h9V155h-8.93v-1.72H419v3.9h-9v.46h9.25v1.73h-12Zm8.94,8.95v-.48h-6.16v.48Z"/><path d="M430.41,158.27v7.38h-2.82V153.78h2.77l4.18,7.13v-7.13h2.81v11.87h-2.62Z"/><path d="M446.28,165.65v-.77a2.67,2.67,0,0,1-1,.65,3.44,3.44,0,0,1-1.29.23,5,5,0,0,1-1.65-.27,3.64,3.64,0,0,1-1.34-.83,3.88,3.88,0,0,1-.87-1.42,5.51,5.51,0,0,1-.28-2,5.7,5.7,0,0,1,.39-2,4.11,4.11,0,0,1,.95-1.43,3.57,3.57,0,0,1,1.34-.82,4.16,4.16,0,0,1,1.57-.24,3.54,3.54,0,0,1,1.25.32,3.29,3.29,0,0,1,.93.66v-.8h2.77v8.8Zm-1.95-2.34a2.1,2.1,0,0,0,1.21-.34,1.61,1.61,0,0,0,.64-1.08s0-.1,0-.22,0-.18,0-.21a2.57,2.57,0,0,0-.53-1.73,1.68,1.68,0,0,0-1.3-.61,1.61,1.61,0,0,0-1.21.49,2.05,2.05,0,0,0-.56,1.59,2.31,2.31,0,0,0,.48,1.59A1.62,1.62,0,0,0,444.33,163.31Z"/><path d="M451.54,165.65v-8.8h2.71v.54a4,4,0,0,1,1-.53,5.22,5.22,0,0,1,1.1-.23h.17a3.1,3.1,0,0,1,1.37.27,2.47,2.47,0,0,1,.89.73,6,6,0,0,1,1.25-.71,3.43,3.43,0,0,1,1.2-.29h.27a2.86,2.86,0,0,1,2.3.9,3.76,3.76,0,0,1,.77,2.5v5.62h-2.66v-4.18a3.11,3.11,0,0,0-.32-1.72,1,1,0,0,0-.89-.4,2,2,0,0,0-.68.12,2.12,2.12,0,0,0-.54.36,1.85,1.85,0,0,0,0,.23,1.62,1.62,0,0,1,0,.21v5.38h-2.64v-4.18a3,3,0,0,0-.33-1.68,1,1,0,0,0-.9-.44,1.89,1.89,0,0,0-.78.16,4.16,4.16,0,0,0-.63.43v5.71Z"/><path d="M466.9,161.3a5.89,5.89,0,0,1,.32-2,4.69,4.69,0,0,1,.9-1.5,4,4,0,0,1,1.38-.94,4.53,4.53,0,0,1,1.79-.34,4.33,4.33,0,0,1,1.77.35,4,4,0,0,1,1.32,1,4.41,4.41,0,0,1,.81,1.52,6.31,6.31,0,0,1,.29,1.94l-.06.88h-5.78a1.14,1.14,0,0,0,.56.94,2.15,2.15,0,0,0,1.2.32,2.27,2.27,0,0,0,1.08-.24,2.79,2.79,0,0,0,.84-.72l1.81,1.57a4.45,4.45,0,0,1-1.68,1.43,5.24,5.24,0,0,1-3.95.14,4,4,0,0,1-1.4-.93,4.21,4.21,0,0,1-.91-1.47A5.26,5.26,0,0,1,466.9,161.3Zm5.88-1.23a1.18,1.18,0,0,0-.52-.82,1.76,1.76,0,0,0-1-.27,1.7,1.7,0,0,0-1,.29,1.08,1.08,0,0,0-.48.8Z"/><path d="M391.54,216.83c.24-.17.46-.34.67-.51a5.88,5.88,0,0,0,.58-.53,3.58,3.58,0,0,0,.44-.51,5.65,5.65,0,0,0,.38-.57,5,5,0,0,0,.25-.62,6,6,0,0,0,.2-.71c0-.24.05-.49.08-.78s0-.59,0-.92h2.57c0,.45,0,.88-.05,1.28s-.09.79-.15,1.14l0,.09a.31.31,0,0,1,0,.08l0,.08v.07c.2.16.4.32.6.5l.58.51c.23.24.47.5.7.78a10.67,10.67,0,0,1,.69.9l-1.79,1.49a9.81,9.81,0,0,0-.66-.82,8.08,8.08,0,0,0-.62-.66l-.26-.2a3.23,3.23,0,0,0-.27-.23l-.36.47a5.48,5.48,0,0,1-.37.43q-.36.34-.75.66a8,8,0,0,1-.82.58Zm7.81,8.09c-.6,0-1.13,0-1.61-.06a10.11,10.11,0,0,1-1.28-.18,7.21,7.21,0,0,1-1-.28,3.15,3.15,0,0,1-.78-.38,3,3,0,0,1-.58-.42,1.45,1.45,0,0,1-.35-.52,1.86,1.86,0,0,1-.2-.54,2.76,2.76,0,0,1-.06-.57,2.48,2.48,0,0,1,.06-.54,2.22,2.22,0,0,1,.2-.56,1.44,1.44,0,0,1,.35-.49,3,3,0,0,1,.58-.44,4.75,4.75,0,0,1,.78-.36,8.53,8.53,0,0,1,1-.31,10.11,10.11,0,0,1,1.28-.18c.48,0,1-.06,1.61-.06a15.51,15.51,0,0,1,1.59.07c.49.05.92.11,1.31.18a9.3,9.3,0,0,1,1,.32,5,5,0,0,1,.8.36,2.54,2.54,0,0,1,.56.44,2.11,2.11,0,0,1,.38.48,3.61,3.61,0,0,1,.18.56,2,2,0,0,1,.08.53,2.24,2.24,0,0,1-.08.57,2.63,2.63,0,0,1-.18.54,2.1,2.1,0,0,1-.38.52,2.82,2.82,0,0,1-.56.42,3.3,3.3,0,0,1-.8.38,7.69,7.69,0,0,1-1,.28,10.93,10.93,0,0,1-1.31.18Q400.22,224.92,399.35,224.92Zm0-2.12c.51,0,.95,0,1.31-.05a3.17,3.17,0,0,0,.85-.19,1.08,1.08,0,0,0,.45-.25.44.44,0,0,0,.16-.34.41.41,0,0,0-.16-.31,1.58,1.58,0,0,0-.45-.28,4.27,4.27,0,0,0-.85-.18,12.16,12.16,0,0,0-1.31-.06,9.68,9.68,0,0,0-1.3.07,3.67,3.67,0,0,0-.83.19,1.75,1.75,0,0,0-.47.28.43.43,0,0,0-.15.29.45.45,0,0,0,.14.32,1.33,1.33,0,0,0,.45.26,2.71,2.71,0,0,0,.83.2C398.37,222.78,398.82,222.8,399.35,222.8Zm3.46-6.57-.43.07-.47,0v2.07h-2.48v-6.83h2.48v2.33h.9v-2.33h2.48v7.23h-2.48Z"/><path d="M411.19,211.6v5.75h3.63l.32,0h.31a1.42,1.42,0,0,0,.3,0H416l.29,0v2.06l-.63.11c-.2,0-.4,0-.59,0s-.43,0-.65,0h-6.23V211.6Zm.23,8.56V222h9.07v2.4H408.62v-4.24Zm6.09.31v-3.89l-.13,0h-.11l-.35,0h-.34l-.36,0h-.32l-.33,0h-1.74v-2h3.27l.3,0h.11V214l-.45.05-.49,0-.71,0h-2v-2h3.27l.28,0h.13v-.49h2.8v8.91Z"/><path d="M430.28,218.76V217.4h1.42l.56,0h.39a.81.81,0,0,0,.33-.06V217a2.32,2.32,0,0,1-.44.08,5.19,5.19,0,0,1-.61,0q-.44,0-.93,0h-2.34v1.66h-3v-1.66h-2.53v-1.6h8.28l.4,0h.32a1.54,1.54,0,0,0,.3,0h.13l.13,0h.13l.15,0v-3.8h2.8v7.2Zm-2.4-3.6a14.24,14.24,0,0,1-1.82-.11,5.61,5.61,0,0,1-1.41-.34,1.94,1.94,0,0,1-.93-.59,1.41,1.41,0,0,1-.3-.92,1.47,1.47,0,0,1,.3-.92,2.16,2.16,0,0,1,.93-.64,6,6,0,0,1,1.41-.37,14.24,14.24,0,0,1,1.82-.11,14,14,0,0,1,1.8.11,6.61,6.61,0,0,1,1.43.37,2.25,2.25,0,0,1,.92.64,1.42,1.42,0,0,1,.31.92,1.37,1.37,0,0,1-.31.92,2,2,0,0,1-.92.59,6.13,6.13,0,0,1-1.43.34A14,14,0,0,1,427.88,215.16ZM424.2,221h8.86v-.36h-8.78v-1.54h11.5v3.36h-8.86v.43h9v1.54H424.2Zm3.68-7.45c.29,0,.54,0,.77,0a4,4,0,0,0,.57-.07.66.66,0,0,0,.36-.13.29.29,0,0,0,.12-.24.23.23,0,0,0-.12-.19,1.21,1.21,0,0,0-.37-.13l-.59-.05c-.23,0-.47,0-.74,0s-.54,0-.76,0l-.57.05a1,1,0,0,0-.37.13.23.23,0,0,0-.12.19.29.29,0,0,0,.12.24.66.66,0,0,0,.36.13,4,4,0,0,0,.57.07C427.34,213.58,427.59,213.59,427.88,213.59Z"/><path d="M441.2,217.31a3.78,3.78,0,0,1-1.32-.59,2.42,2.42,0,0,1-.88-.95,2.92,2.92,0,0,1-.29-1.32,2.85,2.85,0,0,1,.29-1.29,2.72,2.72,0,0,1,.88-1,4.17,4.17,0,0,1,1.32-.58,7,7,0,0,1,3.33,0,4.44,4.44,0,0,1,1.33.58,2.81,2.81,0,0,1,.88,1,2.85,2.85,0,0,1,.29,1.29,2.92,2.92,0,0,1-.29,1.32,2.5,2.5,0,0,1-.88.95,4,4,0,0,1-1.33.59,7,7,0,0,1-3.33,0Zm-1.69,3h8.74v-.45h-8.66v-1.82H451v4h-8.74v.5h8.9v1.82H439.51Zm3.93-5a1.9,1.9,0,0,0,.49-.18.8.8,0,0,0,.32-.28,1,1,0,0,0,.11-.46.77.77,0,0,0-.11-.4,1.34,1.34,0,0,0-.31-.32,3.12,3.12,0,0,0-.49-.18,2.2,2.2,0,0,0-.58-.07,2.37,2.37,0,0,0-.61.07,2.21,2.21,0,0,0-.46.18.89.89,0,0,0-.32.32.88.88,0,0,0-.1.4,1,1,0,0,0,.11.46.71.71,0,0,0,.33.28,1.41,1.41,0,0,0,.45.18,2.77,2.77,0,0,0,.6.06A2.62,2.62,0,0,0,443.44,215.37Zm4.74,2.22v-6H451v6Z"/><path d="M468.9,218a6.33,6.33,0,0,1-1.43,4.35,5.58,5.58,0,0,1-4.39,1.59H459V212.07h4.05a5.59,5.59,0,0,1,4.39,1.61A6.29,6.29,0,0,1,468.9,218Zm-2.68,0a4.45,4.45,0,0,0-.62-2.47,2.08,2.08,0,0,0-1.86-.93h-1.91v6.81h1.91a2.09,2.09,0,0,0,1.86-.91A4.42,4.42,0,0,0,466.22,218Z"/><path d="M477.51,223.94v-.77a2.71,2.71,0,0,1-1,.65,3.65,3.65,0,0,1-1.29.23,4.91,4.91,0,0,1-1.64-.27,3.68,3.68,0,0,1-1.35-.83,4,4,0,0,1-.87-1.42,5.51,5.51,0,0,1-.28-2,5.7,5.7,0,0,1,.39-2,4.11,4.11,0,0,1,.95-1.43,3.57,3.57,0,0,1,1.34-.82,4.22,4.22,0,0,1,1.58-.24,3.54,3.54,0,0,1,1.24.32,3,3,0,0,1,.93.66v-.8h2.77v8.8Zm-1.95-2.34a2.1,2.1,0,0,0,1.21-.34,1.66,1.66,0,0,0,.65-1.08s0-.1,0-.22,0-.18,0-.21a2.56,2.56,0,0,0-.53-1.73,1.71,1.71,0,0,0-2.51-.12,2.05,2.05,0,0,0-.56,1.59,2.26,2.26,0,0,0,.49,1.59A1.58,1.58,0,0,0,475.56,221.6Z"/><path d="M486.5,220.24a2.91,2.91,0,0,0,.08.77.53.53,0,0,0,.36.35.76.76,0,0,0,.37,0,2.19,2.19,0,0,0,.59-.16l.46,2.45a4.84,4.84,0,0,1-1.52.37,3.45,3.45,0,0,1-1.6-.21,2.09,2.09,0,0,1-1.17-1.09,5.07,5.07,0,0,1-.33-2v-3.12H482.3v-2.5h1.44v-3.07h2.76v3.07h1.8v2.5h-1.8Z"/><path d="M490.18,219.59a5.89,5.89,0,0,1,.32-2,4.69,4.69,0,0,1,.9-1.5,3.89,3.89,0,0,1,1.38-.94,4.53,4.53,0,0,1,1.79-.34,4.33,4.33,0,0,1,1.77.35,4,4,0,0,1,1.32,1,4.41,4.41,0,0,1,.81,1.52,6.31,6.31,0,0,1,.29,1.94l-.06.88h-5.78a1.14,1.14,0,0,0,.56.94,2.15,2.15,0,0,0,1.2.32,2.27,2.27,0,0,0,1.08-.24,2.79,2.79,0,0,0,.84-.72l1.81,1.57a4.45,4.45,0,0,1-1.68,1.43,5.24,5.24,0,0,1-4,.14,4,4,0,0,1-1.4-.93,4.21,4.21,0,0,1-.91-1.47A5.26,5.26,0,0,1,490.18,219.59Zm5.88-1.24a1.18,1.18,0,0,0-.52-.81,1.76,1.76,0,0,0-1-.27,1.7,1.7,0,0,0-1,.29,1.06,1.06,0,0,0-.48.79Z"/><path d="M510.74,224.15a5.43,5.43,0,0,1-1.93-.33,4.22,4.22,0,0,1-2.5-2.39,5,5,0,0,1-.35-1.91,4.78,4.78,0,0,1,.38-1.93,4.16,4.16,0,0,1,1-1.46,4.42,4.42,0,0,1,1.51-.91,5.54,5.54,0,0,1,3.71,0,4.71,4.71,0,0,1,1.53.91,4.26,4.26,0,0,1,1,1.46,4.62,4.62,0,0,1,.39,1.93,4.85,4.85,0,0,1-.36,1.91,4.35,4.35,0,0,1-1,1.45,4.29,4.29,0,0,1-1.52.94A5.37,5.37,0,0,1,510.74,224.15Zm0-2.53a2.16,2.16,0,0,0,1.43-.52,2.29,2.29,0,0,0,0-3.13,2.12,2.12,0,0,0-1.43-.54,2,2,0,0,0-1.38.54,2.34,2.34,0,0,0,0,3.13A2,2,0,0,0,510.71,221.62Z"/><path d="M517.21,215.14h1.34v-.53a3.33,3.33,0,0,1,.6-2.19,2.19,2.19,0,0,1,1.77-.7h1.68v2.46H522c-.31,0-.51,0-.59.16a.89.89,0,0,0-.13.56v.24h1.36v2.5h-1.36v6.3h-2.77v-6.3h-1.34Z"/><path d="M530.14,223.94V212.07h4.76a5.56,5.56,0,0,1,3.28.77,2.81,2.81,0,0,1,1.14,2,3,3,0,0,1,0,.79,3.64,3.64,0,0,1-.25.77,2.4,2.4,0,0,1-.47.64,2.08,2.08,0,0,1-.65.46,2.75,2.75,0,0,1,1.35,1.38,3.66,3.66,0,0,1,.34,2,3.18,3.18,0,0,1-1.17,2.28,4.71,4.71,0,0,1-3,.79Zm2.78-9.36v1.95h2.5a1.35,1.35,0,0,0,.82-.29.87.87,0,0,0,.3-.7.88.88,0,0,0-.32-.7,1.44,1.44,0,0,0-.9-.26Zm0,4.37v2.48h2.46a1.17,1.17,0,0,0,1.44-1.25,1.2,1.2,0,0,0-.35-.86,1.61,1.61,0,0,0-1.21-.37Z"/><path d="M544.71,214.21h-2.77v-2.14h2.77Zm-2.77.93h2.77v8.8h-2.77Z"/><path d="M552.23,215.06v2.64H552a3.77,3.77,0,0,0-1,.14,3.15,3.15,0,0,0-.92.45v5.65h-2.85v-8.8h2.85v.64a3.2,3.2,0,0,1,.87-.5,4.58,4.58,0,0,1,1-.22Z"/><path d="M557.9,220.24a2.54,2.54,0,0,0,.08.77.51.51,0,0,0,.35.35.76.76,0,0,0,.37,0,2.19,2.19,0,0,0,.59-.16l.46,2.45a4.77,4.77,0,0,1-1.52.37,3.45,3.45,0,0,1-1.6-.21,2.09,2.09,0,0,1-1.17-1.09,5.07,5.07,0,0,1-.33-2v-3.12h-1.44v-2.5h1.44v-3.07h2.77v3.07h1.79v2.5H557.9Z"/><path d="M561.77,223.94V212.07h2.8v3.49a2.55,2.55,0,0,1,.83-.43,4.64,4.64,0,0,1,1.12-.23h.21a3,3,0,0,1,2.44,1,4,4,0,0,1,.84,2.62v5.38h-2.8V219.6a2.63,2.63,0,0,0-.36-1.64,1.08,1.08,0,0,0-1-.36,2.77,2.77,0,0,0-.74.2,1.87,1.87,0,0,0-.58.43v5.71Z"/><path d="M396.7,278.26v-.9h-5V275h13.24v2.32h-5.16v.9h4.48v4.48h-2.8v-2.08h-9.07v-2.4Zm7.6-8.34v1.41c0,.23,0,.44,0,.64v.56q0,.29,0,.54c0,.16,0,.32,0,.47s0,.31-.05.45,0,.27,0,.4H401.4a1.28,1.28,0,0,1,0-.19,1.94,1.94,0,0,1,0-.24l0-.28c0-.09,0-.2,0-.32v-.59a2.35,2.35,0,0,1,0-.27c0-.09,0-.17,0-.26h-9.06v-2.32Z"/><path d="M414.41,270v1.39a5.16,5.16,0,0,1-.21,1.12,5.26,5.26,0,0,1-.42,1l-.08.15a.66.66,0,0,1-.08.13l.16.1a.62.62,0,0,0,.16.1,9.95,9.95,0,0,1,1.73,1.7l-1.85,2c-.26-.29-.52-.57-.78-.83s-.52-.53-.78-.77l-.18-.14-.18-.15a6.36,6.36,0,0,1-.72.53,8.35,8.35,0,0,1-.77.43,10.53,10.53,0,0,1-1.15.5,10.18,10.18,0,0,1-1.17.32l-1.22-2.08a11.14,11.14,0,0,0,1.54-.54,11.64,11.64,0,0,0,1.36-.71,8.05,8.05,0,0,0,1.07-.8,3.75,3.75,0,0,0,.72-.9h-4.13V270Zm2.46,12.77V280.6h-8.78V278h11.58v4.7Zm0-10.88v-2h2.8v7.64h-2.8v-3.22a.65.65,0,0,1-.21.07,6.46,6.46,0,0,0-.6.06H415v-2.48h1.78Z"/><path d="M432.87,282.23h-5V270.35h2.85v9.3H434a5.92,5.92,0,0,0,.64,0l.57,0,.55-.08V282a6.45,6.45,0,0,1-1.38.19C433.83,282.21,433.32,282.23,432.87,282.23Z"/><path d="M440.65,272.5h-2.77v-2.15h2.77Zm-2.77.93h2.77v8.8h-2.77Z"/><path d="M442.5,273.43h3l1.58,5,1.58-5h3l-3.38,8.8h-2.43Z"/><path d="M456.26,272.5H453.5v-2.15h2.76Zm-2.76.93h2.76v8.8H453.5Z"/><path d="M458.76,282.23v-8.8h2.8v.51a3.18,3.18,0,0,1,.84-.46,4,4,0,0,1,1.13-.26h.25a2.79,2.79,0,0,1,2.37,1,4.28,4.28,0,0,1,.79,2.63v5.38h-2.8v-4.18a5.5,5.5,0,0,0-.09-1.11,1.73,1.73,0,0,0-.25-.65.64.64,0,0,0-.38-.29,1.62,1.62,0,0,0-.52-.08,2.14,2.14,0,0,0-.73.16,3.8,3.8,0,0,0-.61.39v5.76Z"/><path d="M478.41,280.71a7.24,7.24,0,0,1-.27,2.12,3.08,3.08,0,0,1-1.24,1.54,4.19,4.19,0,0,1-1.76.66,11,11,0,0,1-2.08.09,8.37,8.37,0,0,1-1.64-.26,7,7,0,0,1-1.78-.76l1.15-2.18a7,7,0,0,0,1.63.71,4.82,4.82,0,0,0,1.75.13,1.66,1.66,0,0,0,1.12-.5,1.33,1.33,0,0,0,.32-.83V281a2.27,2.27,0,0,1-.95.55,4,4,0,0,1-1.31.21,4.64,4.64,0,0,1-1.45-.24,3.84,3.84,0,0,1-1.33-.76,3.48,3.48,0,0,1-1-1.28,3.9,3.9,0,0,1-.32-1.87,5.84,5.84,0,0,1,.38-2,4.08,4.08,0,0,1,.93-1.4,3.44,3.44,0,0,1,1.33-.78,4.61,4.61,0,0,1,1.58-.21,3.48,3.48,0,0,1,1.22.26,3.34,3.34,0,0,1,.88.57v-.62h2.8Zm-4.63-1.28a1.67,1.67,0,0,0,1.32-.51,1.76,1.76,0,0,0,.46-1.25,2,2,0,0,0-.53-1.54,2,2,0,0,0-1.25-.54,1.55,1.55,0,0,0-.6.08,1.43,1.43,0,0,0-.56.32,1.86,1.86,0,0,0-.43.61,2.47,2.47,0,0,0-.18.92,1.72,1.72,0,0,0,.49,1.46A1.81,1.81,0,0,0,473.78,279.43Z"/><path d="M488.87,272.5H486.1v-2.15h2.77Zm-2.77.93h2.77v8.8H486.1Z"/><path d="M491.37,282.23v-8.8h2.8v.51a3.18,3.18,0,0,1,.84-.46,4,4,0,0,1,1.13-.26h.25a2.79,2.79,0,0,1,2.37,1,4.28,4.28,0,0,1,.78,2.63v5.38h-2.8v-4.18a6.49,6.49,0,0,0-.08-1.11,1.92,1.92,0,0,0-.25-.65A.64.64,0,0,0,496,276a1.67,1.67,0,0,0-.52-.08,2.14,2.14,0,0,0-.73.16,3.4,3.4,0,0,0-.61.39v5.76Z"/><path d="M400.41,328.9v1.23a5.79,5.79,0,0,1-.27,1.16,4.13,4.13,0,0,1-.48,1l-.06.06,0,.06-.05.07,0,0a.61.61,0,0,0,.14.07l.18,0a5.34,5.34,0,0,1,.79.4q.41.24.84.54L400,335.51q-.4-.28-.78-.51a5.42,5.42,0,0,0-.71-.37l-.29-.1-.29-.09-.31-.1-.31-.1c-.27.13-.54.25-.83.36a8.08,8.08,0,0,1-.91.3,13.51,13.51,0,0,1-1.46.34,15.31,15.31,0,0,1-1.55.17l-.75-2.16c.32,0,.63-.07.94-.13l.93-.17.83-.19c.27-.07.53-.14.78-.23a5.84,5.84,0,0,0,.67-.25c.21-.09.41-.19.6-.29s.33-.19.47-.29a1.87,1.87,0,0,0,.36-.32h-5.09V328.9h2.91v-1.09h3v1.09Zm-8.47,7h7.72c.32,0,.61,0,.89,0a6.79,6.79,0,0,0,.7-.06,1.85,1.85,0,0,0,.53-.15v-7.55h2.8V341h-2.8v-3l-.08,0-.09,0-.1,0h-.09a2.21,2.21,0,0,1-.37.08l-.4,0-.45,0h-.46l-.48,0h-1.32V341h-3v-2.69h-3Z"/><path d="M415.13,340.32h-7.3v-11.9h7.3Zm-2.64-2.48V330.9h-2v6.94Zm4.14,3.17V328.13h3V341Z"/><path d="M427.83,328.64h2.85v4.48h4.06v-4.48h2.85v11.88h-2.85v-4.84h-4.06v4.84h-2.85Z"/><path d="M444.78,340.72a5.72,5.72,0,0,1-1.94-.32,4.2,4.2,0,0,1-2.5-2.4,5,5,0,0,1-.35-1.9,4.87,4.87,0,0,1,.38-1.94,4.12,4.12,0,0,1,1-1.45,4.36,4.36,0,0,1,1.51-.91,5.21,5.21,0,0,1,1.87-.32,5.13,5.13,0,0,1,1.84.32,4.45,4.45,0,0,1,1.53.91,4.39,4.39,0,0,1,1,1.45,4.87,4.87,0,0,1,.38,1.94,4.8,4.8,0,0,1-.36,1.9,4.52,4.52,0,0,1-1,1.46,4.47,4.47,0,0,1-1.52.94A5.69,5.69,0,0,1,444.78,340.72Zm0-2.52a2.21,2.21,0,0,0,1.43-.52,2.29,2.29,0,0,0,0-3.13,2.14,2.14,0,0,0-1.43-.55,2,2,0,0,0-1.38.55,2.34,2.34,0,0,0,0,3.13A2.08,2.08,0,0,0,444.74,338.2Z"/><path d="M456.84,340.64a3.53,3.53,0,0,1-1.3-.24,2.59,2.59,0,0,1-1-.67v.79H451.8V328.64h2.75v3.89a2.8,2.8,0,0,1,.95-.66,3.7,3.7,0,0,1,1.42-.31,3.89,3.89,0,0,1,1.61.25,3.57,3.57,0,0,1,1.3.88,4.42,4.42,0,0,1,.86,1.47,6.21,6.21,0,0,1,.33,2,5.4,5.4,0,0,1-.31,2,3.57,3.57,0,0,1-.88,1.39,3.38,3.38,0,0,1-1.34.82A5.19,5.19,0,0,1,456.84,340.64Zm-.53-2.44a2,2,0,0,0,.73-.07,1.53,1.53,0,0,0,.65-.35,1.85,1.85,0,0,0,.46-.67,2.6,2.6,0,0,0,.18-1,2.38,2.38,0,0,0-.17-.93,2,2,0,0,0-.42-.65,2.21,2.21,0,0,0-.6-.37,1.78,1.78,0,0,0-.64-.13,1.62,1.62,0,0,0-1.33.64,2.54,2.54,0,0,0-.52,1.68,2,2,0,0,0,.43,1.29A1.65,1.65,0,0,0,456.31,338.2Z"/><path d="M468.36,340.64a3.53,3.53,0,0,1-1.3-.24,2.59,2.59,0,0,1-1-.67v.79h-2.75V328.64h2.75v3.89a2.8,2.8,0,0,1,.95-.66,3.7,3.7,0,0,1,1.42-.31,3.89,3.89,0,0,1,1.61.25,3.57,3.57,0,0,1,1.3.88,4.42,4.42,0,0,1,.86,1.47,6.21,6.21,0,0,1,.33,2,5.4,5.4,0,0,1-.31,2,3.57,3.57,0,0,1-.88,1.39,3.38,3.38,0,0,1-1.34.82A5.19,5.19,0,0,1,468.36,340.64Zm-.53-2.44a2,2,0,0,0,.73-.07,1.53,1.53,0,0,0,.65-.35,1.85,1.85,0,0,0,.46-.67,2.6,2.6,0,0,0,.18-1,2.38,2.38,0,0,0-.17-.93,2,2,0,0,0-.42-.65,2.21,2.21,0,0,0-.6-.37A1.78,1.78,0,0,0,468,334a1.62,1.62,0,0,0-1.33.64,2.54,2.54,0,0,0-.52,1.68,2,2,0,0,0,.43,1.29A1.65,1.65,0,0,0,467.83,338.2Z"/><path d="M477.21,338.48l-3.44-6.76h3.17l1.72,3.61,1.51-3.61h3.1l-5,11.2-2.79-.79Z"/><path d="M403.51,386.53v.77a2.5,2.5,0,0,1-.21.48,2.1,2.1,0,0,1-.35.45l-.29.28a2.91,2.91,0,0,1-.33.26c.37,0,.75.08,1.14.14l1.21.21-.56,1.75-.82-.18-.75-.16a2.2,2.2,0,0,1-.37,0l-.36,0-.36-.06a3.17,3.17,0,0,1-.35-.06h-.37l-.33,0v1h4.53v2H391.7v-2h5.81v-.86l-.64.09-.64.05c-.31,0-.61.07-.92.09s-.6.05-.9.06-.63.05-.91.05h-.82l-.53-1.68h1.07c.35,0,.72,0,1.11-.07s.72,0,1.06-.05.69,0,1-.08.63,0,.93-.08.58-.07.85-.12.49-.08.69-.13a4.08,4.08,0,0,0,.53-.18H393v-1.84Zm1,9.81h-1.42c.19.1.36.19.5.28a2.34,2.34,0,0,1,.38.28,2.11,2.11,0,0,1,.22.37.8.8,0,0,1,.08.37,1.47,1.47,0,0,1-.35,1,2.46,2.46,0,0,1-1,.66,7,7,0,0,1-1.83.4,22.89,22.89,0,0,1-2.67.13,23.14,23.14,0,0,1-2.69-.13,6.53,6.53,0,0,1-1.8-.4,2.43,2.43,0,0,1-1.05-.66,1.46,1.46,0,0,1-.34-1,.94.94,0,0,1,.07-.37,1.39,1.39,0,0,1,.23-.37,1.05,1.05,0,0,1,.33-.28,5,5,0,0,1,.53-.28h-1.39v-1.89h4.64v-.78h3v.78h4.64Zm-6.13,1.52c.55,0,1,0,1.4,0a5.63,5.63,0,0,0,.92-.11,1.26,1.26,0,0,0,.48-.2.41.41,0,0,0,.16-.33.38.38,0,0,0-.18-.3,2.1,2.1,0,0,0-.52-.25,7.25,7.25,0,0,0-.93-.15,12.87,12.87,0,0,0-1.33-.05,13.1,13.1,0,0,0-1.33.05,6.34,6.34,0,0,0-.91.15,2,2,0,0,0-.54.25.38.38,0,0,0-.18.3.44.44,0,0,0,.16.33,1.08,1.08,0,0,0,.48.2,5.07,5.07,0,0,0,.89.11C397.3,397.85,397.78,397.86,398.34,397.86Z"/><path d="M411.22,386.34a4,4,0,0,1,.86.09,4.27,4.27,0,0,1,.79.25,3,3,0,0,1,.66.46,4,4,0,0,1,.57.64,7.06,7.06,0,0,1,.45.87,6.39,6.39,0,0,1,.35,1.07,9.67,9.67,0,0,1,.2,1.32,15,15,0,0,1,.08,1.56,15.65,15.65,0,0,1-.08,1.59,8.91,8.91,0,0,1-.2,1.3,5.82,5.82,0,0,1-.35,1.09,6.11,6.11,0,0,1-.45.85,4.08,4.08,0,0,1-.57.65,2.38,2.38,0,0,1-.66.44,3.63,3.63,0,0,1-.79.25,4,4,0,0,1-.86.08,4.06,4.06,0,0,1-.88-.08,3,3,0,0,1-.76-.25,2.43,2.43,0,0,1-.7-.44,2.91,2.91,0,0,1-.55-.65,4.06,4.06,0,0,1-.47-.85,7.94,7.94,0,0,1-.32-1.09,8.91,8.91,0,0,1-.2-1.3,15.78,15.78,0,0,1-.07-1.59,15.17,15.17,0,0,1,.07-1.56,9.67,9.67,0,0,1,.2-1.32,9.05,9.05,0,0,1,.32-1.07,4.51,4.51,0,0,1,.47-.87,2.86,2.86,0,0,1,.55-.64,3,3,0,0,1,.7-.46,3.39,3.39,0,0,1,.76-.25A4,4,0,0,1,411.22,386.34Zm0,2.64a.67.67,0,0,0-.24,0l-.22.09a.7.7,0,0,0-.22.2,1,1,0,0,0-.18.31,2.37,2.37,0,0,0-.15.47c0,.19-.07.39-.11.62a6.31,6.31,0,0,0-.08.84q0,.46,0,1.05t0,1.08a5.52,5.52,0,0,0,.08.8c0,.25.07.46.11.64a2.17,2.17,0,0,0,.15.47,1.22,1.22,0,0,0,.18.32,1.35,1.35,0,0,0,.44.28l.24,0,.21,0a.64.64,0,0,0,.24-.11.6.6,0,0,0,.2-.17,1.6,1.6,0,0,0,.2-.32c0-.13.09-.28.14-.47a6,6,0,0,0,.13-.64,7.42,7.42,0,0,0,.08-.8c0-.32,0-.68,0-1.08s0-.74,0-1.05,0-.6-.08-.84-.08-.43-.13-.62-.1-.34-.14-.47a1.28,1.28,0,0,0-.2-.31,1.26,1.26,0,0,0-.2-.2l-.24-.09A.52.52,0,0,0,411.22,389Zm10.1,1.71v2.77h-.21l-.24,0-.25,0h-.28l-.52.1-.47.1v5.58h-3V386.42h3V391l.47-.12.54-.1.28,0,.25,0,.23,0Z"/><path d="M431.14,390.32h-7.85v-2.38h2.45V386h3v1.92h2.44Zm-3.9,8.56a4.45,4.45,0,0,1-1.61-.27,3,3,0,0,1-1.17-.83,3.41,3.41,0,0,1-.72-1.26,5.41,5.41,0,0,1-.24-1.68,5.3,5.3,0,0,1,.24-1.65,3.84,3.84,0,0,1,.72-1.3,2.85,2.85,0,0,1,1.16-.82,4.23,4.23,0,0,1,1.62-.28,3.92,3.92,0,0,1,1.54.28,3.38,3.38,0,0,1,1.2.82,4,4,0,0,1,.73,1.3,5,5,0,0,1,.26,1.65,5.41,5.41,0,0,1-.24,1.68,3.53,3.53,0,0,1-.71,1.26,3,3,0,0,1-1.17.83A4.45,4.45,0,0,1,427.24,398.88Zm0-2.4a1,1,0,0,0,.42-.09,1.27,1.27,0,0,0,.36-.31,1.37,1.37,0,0,0,.23-.5,3.22,3.22,0,0,0,.08-.74,3.11,3.11,0,0,0-.08-.72,2,2,0,0,0-.23-.53,1.4,1.4,0,0,0-.36-.3.87.87,0,0,0-.42-.1.92.92,0,0,0-.44.1,1,1,0,0,0-.34.3,1.37,1.37,0,0,0-.25.53,3.14,3.14,0,0,0-.07.72,3.26,3.26,0,0,0,.07.74,1.11,1.11,0,0,0,.23.5,1,1,0,0,0,.34.31A1.14,1.14,0,0,0,427.24,396.48Zm10.16-5.79v2.77h-.21l-.24,0-.25,0h-.28l-.52.1-.47.1v5.58h-3V386.42h3V391l.47-.12.54-.1.28,0,.25,0,.23,0Z"/><path d="M452.54,394.84H439.3v-2.32h13.24Zm-9.73.57v1.52H452v2.32H440v-3.84Zm.33-8.91v2.77h7.09l.34,0H451l.18,0h.3a2.09,2.09,0,0,0,.34,0v2.21l-.33.12-.3.06-.34.07-.33,0-.37,0H440.1V386.5Z"/><path d="M468,386.55v1.23c0,.26-.05.5-.08.73a3.52,3.52,0,0,1-.15.66H469a1,1,0,0,0,.3,0h.22a.53.53,0,0,0,.16,0v-2.66h2.8v8.43h-2.8v-3.41a.76.76,0,0,1-.18.06.86.86,0,0,1-.23,0,1.57,1.57,0,0,1-.3.05l-.31,0a2.07,2.07,0,0,1-.35,0H468l-.33,0h-1.56l-.07.07-.06,0a7.53,7.53,0,0,1-1.06.71,8.79,8.79,0,0,1-1.24.56,9.62,9.62,0,0,1-1.44.44,15.58,15.58,0,0,1-1.57.26l-.79-2a17.41,17.41,0,0,0,1.85-.51,15.12,15.12,0,0,0,1.55-.63,4.93,4.93,0,0,0,1.11-.71A2.36,2.36,0,0,0,465,389h-4.61v-2.48Zm-7.7,10.73a12.66,12.66,0,0,0,2-.43,8,8,0,0,0,1.56-.65,3.89,3.89,0,0,0,1.08-.84,3.13,3.13,0,0,0,.62-1.05l0-.21h3v.18c0,.19-.06.38-.1.56a4.26,4.26,0,0,1-.15.54l.19.05.21,0,.19,0,.21,0,.67.2.67.2.67.27.71.29.7.38.78.42L472,399.6c-.45-.26-.89-.51-1.32-.73s-.86-.43-1.27-.61-.84-.3-1.27-.42-.89-.23-1.36-.32a.34.34,0,0,1-.06.06l-.05,0-.06.05-.05,0a7.75,7.75,0,0,1-2.22,1.16,14.42,14.42,0,0,1-3,.66Z"/><path d="M485.67,398.8h-5V386.93h2.85v9.3h3.34l.64,0,.57-.05.55-.08v2.53a5.94,5.94,0,0,1-1.38.18C486.63,398.79,486.12,398.8,485.67,398.8Z"/><path d="M493.45,389.08h-2.77v-2.15h2.77Zm-2.77.92h2.77v8.8h-2.77Z"/><path d="M498.73,396.15v2.65h-2.79V386.93h2.79v5.65l2.4-2.58h3.29l-3.16,3.4,3.58,5.4h-3.25l-2.19-3.39Z"/><path d="M505.78,394.45a5.83,5.83,0,0,1,.32-2A4.63,4.63,0,0,1,507,391a4,4,0,0,1,1.38-.94,4.72,4.72,0,0,1,1.79-.34,4.18,4.18,0,0,1,1.77.36,3.76,3.76,0,0,1,1.32,1,4.37,4.37,0,0,1,.81,1.51,6.31,6.31,0,0,1,.29,1.94l-.06.88h-5.78a1.17,1.17,0,0,0,.56.95,2.24,2.24,0,0,0,1.2.32,2.27,2.27,0,0,0,1.08-.24,2.79,2.79,0,0,0,.84-.72l1.81,1.57a4.54,4.54,0,0,1-1.68,1.43,5,5,0,0,1-2.16.45,4.71,4.71,0,0,1-1.79-.32,4.11,4.11,0,0,1-1.4-.92,4.34,4.34,0,0,1-.91-1.48A5.2,5.2,0,0,1,505.78,394.45Zm5.88-1.23a1.22,1.22,0,0,0-.52-.82,1.89,1.89,0,0,0-2,0,1.08,1.08,0,0,0-.48.8Z"/><path class="cls-4" d="M298.91,51.73a25.88,25.88,0,0,0-1.25,8.83c0,1.1.25,2.79,1.25,3.31a3.69,3.69,0,0,0,2.52,0,8.12,8.12,0,0,0,3.77-2.21c3.3-3.21,5-6.62,5-8.82,0-2.47-1.23-3.51-3.77-4.42C302.38,47,299.63,49.32,298.91,51.73Z"/><path class="cls-4" d="M303.89,49.34s1.2-4.67,2.51-4.45,2.57,5.74.05,5.74S303.89,49.34,303.89,49.34Z"/><path class="cls-4" d="M305.2,49.53S308,45.76,310.38,46s-2.37,6.6-2.52,5.62S305.2,49.53,305.2,49.53Z"/><path class="cls-5" d="M265.13,51.74a6.39,6.39,0,0,0-6.65,6.07,6.45,6.45,0,1,0,6.65-6.07Z"/><path class="cls-5" d="M265.22,55V48.28s-.4-3.93,2-3.93,1.88,4.09,1.88,4.09L268,55Z"/><path class="cls-5" d="M264.82,55l.11-6.76s.45-3.93-2.25-3.93-1.95,4.09-1.95,4.09l1.09,6.6Z"/><path class="cls-4" d="M221.82,51.39a25.82,25.82,0,0,0-1.25,8.82c0,1.1.25,2.79,1.25,3.31a3.69,3.69,0,0,0,2.52,0,8.12,8.12,0,0,0,3.77-2.21c3.3-3.2,5-6.61,5-8.82,0-2.47-1.24-3.51-3.77-4.41C225.29,46.61,222.54,49,221.82,51.39Z"/><path class="cls-4" d="M226.8,49s1.2-4.68,2.51-4.46,2.57,5.74.05,5.74S226.8,49,226.8,49Z"/><path class="cls-4" d="M228.11,49.18s2.81-3.77,5.18-3.54-2.37,6.61-2.52,5.62S228.11,49.18,228.11,49.18Z"/><path class="cls-5" d="M188,51.39a6.39,6.39,0,0,0-6.64,6.08A6.45,6.45,0,1,0,188,51.39Z"/><path class="cls-5" d="M188.13,54.69V47.93s-.4-3.92,2-3.92S192,48.09,192,48.09l-1.08,6.6Z"/><path class="cls-5" d="M187.73,54.69l.11-6.76s.45-3.92-2.25-3.92-2,4.08-2,4.08l1.09,6.6Z"/><path class="cls-4" d="M144.48,51.56a25.58,25.58,0,0,0-1.26,8.83c0,1.1.25,2.79,1.26,3.3a3.61,3.61,0,0,0,2.51,0,8.13,8.13,0,0,0,3.77-2.2c3.3-3.21,5-6.62,5-8.83,0-2.46-1.24-3.5-3.77-4.41C147.94,46.79,145.19,49.14,144.48,51.56Z"/><path class="cls-4" d="M149.45,49.17s1.2-4.68,2.51-4.45,2.57,5.74.06,5.74S149.45,49.17,149.45,49.17Z"/><path class="cls-4" d="M150.76,49.35s2.82-3.77,5.18-3.54-2.36,6.61-2.52,5.63S150.76,49.35,150.76,49.35Z"/><path class="cls-5" d="M110.69,51.56a6.39,6.39,0,0,0-6.64,6.08,6.44,6.44,0,1,0,6.64-6.08Z"/><path class="cls-5" d="M110.79,54.86V48.11s-.41-3.93,2-3.93,1.88,4.08,1.88,4.08l-1.08,6.6Z"/><path class="cls-5" d="M110.38,54.86l.11-6.75s.45-3.93-2.25-3.93-1.95,4.08-1.95,4.08l1.09,6.6Z"/><path class="cls-4" d="M67.38,51.21A25.88,25.88,0,0,0,66.13,60c0,1.1.25,2.79,1.25,3.31a3.69,3.69,0,0,0,2.52,0,8.12,8.12,0,0,0,3.77-2.21c3.3-3.21,5-6.62,5-8.83,0-2.46-1.24-3.5-3.77-4.41C70.85,46.44,68.1,48.8,67.38,51.21Z"/><path class="cls-4" d="M72.36,48.82s1.2-4.67,2.51-4.45,2.57,5.74.06,5.74S72.36,48.82,72.36,48.82Z"/><path class="cls-4" d="M73.67,49s2.82-3.78,5.18-3.54-2.36,6.6-2.52,5.62S73.67,49,73.67,49Z"/><path class="cls-5" d="M42,75.1a6.39,6.39,0,0,0-6.65,6.07A6.45,6.45,0,1,0,42,75.1Z"/><path class="cls-5" d="M42.12,78.4V71.64s-.4-3.93,2-3.93S46,71.8,46,71.8l-1.08,6.6Z"/><path class="cls-5" d="M41.72,78.4l.11-6.76s.45-3.93-2.25-3.93-1.95,4.09-1.95,4.09l1.09,6.6Z"/><path class="cls-4" d="M36.38,114.72a25.76,25.76,0,0,0-1.26,8.82c0,1.1.25,2.79,1.26,3.31a3.66,3.66,0,0,0,2.51,0,8.12,8.12,0,0,0,3.77-2.21c3.3-3.2,5-6.61,5-8.82,0-2.47-1.24-3.51-3.77-4.41C39.84,109.94,37.09,112.3,36.38,114.72Z"/><path class="cls-4" d="M41.35,112.33s1.21-4.68,2.52-4.46,2.56,5.74.05,5.74S41.35,112.33,41.35,112.33Z"/><path class="cls-4" d="M42.66,112.51s2.82-3.77,5.18-3.54-2.36,6.61-2.51,5.62S42.66,112.51,42.66,112.51Z"/><path class="cls-5" d="M42,154.77a6.39,6.39,0,0,0-6.65,6.08A6.45,6.45,0,1,0,42,154.77Z"/><path class="cls-5" d="M42.12,158.07v-6.76s-.4-3.93,2-3.93S46,151.47,46,151.47l-1.08,6.6Z"/><path class="cls-5" d="M41.72,158.07l.11-6.76s.45-3.93-2.25-3.93-1.95,4.09-1.95,4.09l1.09,6.6Z"/><path class="cls-4" d="M36.38,193a25.83,25.83,0,0,0-1.26,8.83c0,1.1.25,2.79,1.26,3.31a3.66,3.66,0,0,0,2.51,0,8.12,8.12,0,0,0,3.77-2.21c3.3-3.21,5-6.62,5-8.82,0-2.47-1.24-3.51-3.77-4.42C39.84,188.21,37.09,190.57,36.38,193Z"/><path class="cls-4" d="M41.35,190.59s1.21-4.67,2.52-4.45,2.56,5.74.05,5.74S41.35,190.59,41.35,190.59Z"/><path class="cls-4" d="M42.66,190.78s2.82-3.77,5.18-3.54-2.36,6.6-2.51,5.62S42.66,190.78,42.66,190.78Z"/><path class="cls-5" d="M40.62,233.63A6.41,6.41,0,0,0,34,239.71a6.45,6.45,0,1,0,6.64-6.08Z"/><path class="cls-5" d="M40.72,236.93v-6.75s-.4-3.93,2-3.93,1.87,4.09,1.87,4.09l-1.08,6.59Z"/><path class="cls-5" d="M40.31,236.93l.11-6.75s.45-3.93-2.25-3.93-1.94,4.09-1.94,4.09l1.09,6.59Z"/><path class="cls-4" d="M35,273.25a25.93,25.93,0,0,0-1.25,8.83c0,1.1.25,2.79,1.25,3.31a3.69,3.69,0,0,0,2.52,0,8.12,8.12,0,0,0,3.77-2.21c3.3-3.21,5-6.62,5-8.82,0-2.47-1.24-3.51-3.77-4.42C38.44,268.48,35.69,270.84,35,273.25Z"/><path class="cls-4" d="M40,270.87s1.2-4.68,2.51-4.46,2.57,5.74,0,5.74S40,270.87,40,270.87Z"/><path class="cls-4" d="M41.26,271.05s2.81-3.77,5.18-3.54-2.37,6.61-2.52,5.62S41.26,271.05,41.26,271.05Z"/><path class="cls-5" d="M40.62,311.9A6.39,6.39,0,0,0,34,318a6.45,6.45,0,1,0,6.64-6.08Z"/><path class="cls-5" d="M40.72,315.2v-6.75s-.4-3.93,2-3.93,1.87,4.08,1.87,4.08l-1.08,6.6Z"/><path class="cls-5" d="M40.31,315.2l.11-6.75s.45-3.93-2.25-3.93-1.94,4.08-1.94,4.08l1.09,6.6Z"/><path class="cls-4" d="M35,350.12a25.82,25.82,0,0,0-1.25,8.82c0,1.11.25,2.79,1.25,3.31a3.69,3.69,0,0,0,2.52,0,8.21,8.21,0,0,0,3.77-2.2c3.3-3.21,5-6.62,5-8.83,0-2.47-1.24-3.51-3.77-4.41C38.44,345.34,35.69,347.7,35,350.12Z"/><path class="cls-4" d="M40,347.73s1.2-4.68,2.51-4.46S45,349,42.51,349,40,347.73,40,347.73Z"/><path class="cls-4" d="M41.26,347.91s2.81-3.77,5.18-3.54S44.07,351,43.92,350,41.26,347.91,41.26,347.91Z"/><path class="cls-5" d="M40.62,388.66A6.39,6.39,0,0,0,34,394.74a6.45,6.45,0,1,0,6.64-6.08Z"/><path class="cls-5" d="M40.72,392V385.2s-.4-3.92,2-3.92,1.87,4.08,1.87,4.08L43.52,392Z"/><path class="cls-5" d="M40.31,392l.11-6.76s.45-3.92-2.25-3.92-1.94,4.08-1.94,4.08l1.09,6.6Z"/><path class="cls-4" d="M35,428.28a25.88,25.88,0,0,0-1.25,8.83c0,1.1.25,2.79,1.25,3.31a3.75,3.75,0,0,0,2.52,0,8.21,8.21,0,0,0,3.77-2.21c3.3-3.21,5-6.62,5-8.83,0-2.46-1.24-3.5-3.77-4.41C38.44,423.51,35.69,425.86,35,428.28Z"/><path class="cls-4" d="M40,425.89s1.2-4.67,2.51-4.45,2.57,5.74,0,5.74S40,425.89,40,425.89Z"/><path class="cls-4" d="M41.26,426.07s2.81-3.77,5.18-3.54-2.37,6.61-2.52,5.63S41.26,426.07,41.26,426.07Z"/><path class="cls-5" d="M40.62,466.93A6.39,6.39,0,0,0,34,473a6.45,6.45,0,1,0,6.64-6.08Z"/><path class="cls-5" d="M40.72,470.23v-6.76s-.4-3.93,2-3.93,1.87,4.09,1.87,4.09l-1.08,6.6Z"/><path class="cls-5" d="M40.31,470.23l.11-6.76s.45-3.93-2.25-3.93-1.94,4.09-1.94,4.09l1.09,6.6Z"/><path class="cls-4" d="M298.24,487.54a25.76,25.76,0,0,0-1.26,8.82c0,1.11.25,2.79,1.26,3.31a3.66,3.66,0,0,0,2.51,0,8.13,8.13,0,0,0,3.77-2.2c3.3-3.21,5-6.62,5-8.83,0-2.47-1.24-3.5-3.77-4.41C301.7,482.77,299,485.12,298.24,487.54Z"/><path class="cls-4" d="M303.21,485.15s1.21-4.68,2.51-4.45,2.57,5.73.06,5.73S303.21,485.15,303.21,485.15Z"/><path class="cls-4" d="M304.52,485.33s2.82-3.77,5.18-3.54-2.36,6.61-2.51,5.63S304.52,485.33,304.52,485.33Z"/><path class="cls-5" d="M264.45,487.54a6.39,6.39,0,0,0-6.64,6.08,6.44,6.44,0,1,0,6.64-6.08Z"/><path class="cls-5" d="M264.55,490.84v-6.75s-.4-3.93,2-3.93,1.87,4.08,1.87,4.08l-1.08,6.6Z"/><path class="cls-5" d="M264.14,490.84l.11-6.75s.45-3.93-2.25-3.93-1.95,4.08-1.95,4.08l1.1,6.6Z"/><path class="cls-4" d="M221.15,487.19a25.83,25.83,0,0,0-1.26,8.83c0,1.1.25,2.79,1.26,3.31a3.72,3.72,0,0,0,2.51,0,8.21,8.21,0,0,0,3.77-2.21c3.3-3.21,5-6.62,5-8.83,0-2.46-1.24-3.5-3.77-4.41C224.61,482.42,221.86,484.77,221.15,487.19Z"/><path class="cls-4" d="M226.12,484.8s1.2-4.67,2.51-4.45,2.57,5.74.06,5.74S226.12,484.8,226.12,484.8Z"/><path class="cls-4" d="M227.43,485s2.82-3.77,5.18-3.54-2.36,6.61-2.51,5.63S227.43,485,227.43,485Z"/><path class="cls-5" d="M187.36,487.19a6.39,6.39,0,0,0-6.64,6.08,6.44,6.44,0,1,0,6.64-6.08Z"/><path class="cls-5" d="M187.46,490.49v-6.75s-.41-3.93,2-3.93,1.87,4.08,1.87,4.08l-1.08,6.6Z"/><path class="cls-5" d="M187.05,490.49l.11-6.75s.45-3.93-2.25-3.93-1.95,4.08-1.95,4.08l1.09,6.6Z"/><path class="cls-4" d="M143.8,487.36a25.88,25.88,0,0,0-1.26,8.83c0,1.1.25,2.79,1.26,3.31a3.66,3.66,0,0,0,2.51,0,8.12,8.12,0,0,0,3.77-2.21c3.3-3.21,5-6.62,5-8.82,0-2.47-1.24-3.51-3.77-4.42C147.27,482.59,144.52,485,143.8,487.36Z"/><path class="cls-4" d="M148.77,485s1.21-4.68,2.52-4.46,2.56,5.74.05,5.74S148.77,485,148.77,485Z"/><path class="cls-4" d="M150.08,485.16s2.82-3.77,5.18-3.54-2.36,6.61-2.51,5.62S150.08,485.16,150.08,485.16Z"/><path class="cls-5" d="M110,487.37a6.39,6.39,0,0,0-6.64,6.08,6.45,6.45,0,1,0,6.64-6.08Z"/><path class="cls-5" d="M110.11,490.67v-6.76s-.4-3.93,2-3.93,1.87,4.09,1.87,4.09l-1.08,6.6Z"/><path class="cls-5" d="M109.7,490.67l.11-6.76s.45-3.93-2.25-3.93-1.94,4.09-1.94,4.09l1.09,6.6Z"/><path class="cls-4" d="M66.71,487a25.76,25.76,0,0,0-1.26,8.82c0,1.11.25,2.79,1.26,3.31a3.66,3.66,0,0,0,2.51,0A8.13,8.13,0,0,0,73,497c3.3-3.21,5-6.62,5-8.83,0-2.47-1.24-3.51-3.77-4.41C70.17,482.25,67.43,484.6,66.71,487Z"/><path class="cls-4" d="M71.68,484.63s1.21-4.68,2.52-4.46,2.56,5.74,0,5.74S71.68,484.63,71.68,484.63Z"/><path class="cls-4" d="M73,484.81s2.82-3.77,5.18-3.54-2.36,6.61-2.51,5.63S73,484.81,73,484.81Z"/><path class="cls-4" d="M530.55,488.66a25.81,25.81,0,0,0-1.26,8.82c0,1.11.26,2.8,1.26,3.31a3.63,3.63,0,0,0,2.52,0,8.18,8.18,0,0,0,3.77-2.2c3.29-3.21,5-6.62,5-8.83,0-2.46-1.24-3.5-3.77-4.41C534,483.89,531.27,486.24,530.55,488.66Z"/><path class="cls-4" d="M535.53,486.27s1.2-4.68,2.51-4.45,2.57,5.74.05,5.74S535.53,486.27,535.53,486.27Z"/><path class="cls-4" d="M536.84,486.45s2.81-3.77,5.17-3.54-2.36,6.61-2.51,5.63S536.84,486.45,536.84,486.45Z"/><path class="cls-5" d="M496.76,488.66a6.4,6.4,0,0,0-6.64,6.08,6.45,6.45,0,1,0,6.64-6.08Z"/><path class="cls-5" d="M496.86,492v-6.75s-.4-3.93,2-3.93,1.88,4.08,1.88,4.08l-1.08,6.6Z"/><path class="cls-5" d="M496.45,492l.12-6.75s.45-3.93-2.25-3.93-1.95,4.08-1.95,4.08l1.09,6.6Z"/><path class="cls-4" d="M453.46,488.31a25.83,25.83,0,0,0-1.26,8.83c0,1.1.25,2.79,1.26,3.31a3.72,3.72,0,0,0,2.51,0,8.12,8.12,0,0,0,3.77-2.21c3.3-3.21,5-6.62,5-8.83,0-2.46-1.24-3.5-3.77-4.41C456.93,483.54,454.18,485.9,453.46,488.31Z"/><path class="cls-4" d="M458.43,485.92s1.21-4.67,2.52-4.45,2.56,5.74.05,5.74S458.43,485.92,458.43,485.92Z"/><path class="cls-4" d="M459.74,486.1s2.82-3.77,5.18-3.54-2.36,6.61-2.51,5.63S459.74,486.1,459.74,486.1Z"/><path class="cls-5" d="M419.67,488.32a6.39,6.39,0,0,0-6.64,6.07,6.45,6.45,0,1,0,6.64-6.07Z"/><path class="cls-5" d="M419.77,491.61v-6.75s-.4-3.93,2-3.93,1.88,4.09,1.88,4.09l-1.09,6.59Z"/><path class="cls-5" d="M419.36,491.61l.11-6.75s.45-3.93-2.24-3.93-2,4.09-2,4.09l1.09,6.59Z"/><path class="cls-4" d="M376.11,488.49a25.82,25.82,0,0,0-1.25,8.82c0,1.1.25,2.79,1.25,3.31a3.69,3.69,0,0,0,2.52,0,8.12,8.12,0,0,0,3.77-2.21c3.3-3.2,5-6.62,5-8.82,0-2.47-1.23-3.51-3.77-4.41C379.58,483.71,376.83,486.07,376.11,488.49Z"/><path class="cls-4" d="M381.09,486.1s1.2-4.68,2.51-4.46,2.57,5.74,0,5.74S381.09,486.1,381.09,486.1Z"/><path class="cls-4" d="M382.4,486.28s2.81-3.77,5.18-3.54-2.37,6.61-2.52,5.62S382.4,486.28,382.4,486.28Z"/><path class="cls-5" d="M342.33,488.49a6.39,6.39,0,0,0-6.65,6.08,6.45,6.45,0,1,0,6.65-6.08Z"/><path class="cls-5" d="M342.42,491.79V485s-.4-3.92,2-3.92,1.88,4.08,1.88,4.08l-1.08,6.6Z"/><path class="cls-5" d="M342,491.79l.11-6.76s.45-3.92-2.25-3.92-1.95,4.08-1.95,4.08l1.09,6.6Z"/><path class="cls-4" d="M685.57,489.5a25.88,25.88,0,0,0-1.25,8.83c0,1.1.25,2.79,1.25,3.31a3.69,3.69,0,0,0,2.52,0,8.12,8.12,0,0,0,3.77-2.21c3.3-3.21,5-6.62,5-8.82,0-2.47-1.23-3.51-3.77-4.42C689,484.73,686.29,487.09,685.57,489.5Z"/><path class="cls-4" d="M690.55,487.12s1.2-4.68,2.51-4.46,2.57,5.74.05,5.74S690.55,487.12,690.55,487.12Z"/><path class="cls-4" d="M691.86,487.3s2.81-3.77,5.18-3.54-2.37,6.6-2.52,5.62S691.86,487.3,691.86,487.3Z"/><path class="cls-5" d="M651.79,489.51a6.39,6.39,0,0,0-6.65,6.07,6.45,6.45,0,1,0,6.65-6.07Z"/><path class="cls-5" d="M651.88,492.81v-6.76s-.4-3.93,2-3.93,1.88,4.09,1.88,4.09l-1.08,6.6Z"/><path class="cls-5" d="M651.48,492.81l.11-6.76s.45-3.93-2.25-3.93-2,4.09-2,4.09l1.09,6.6Z"/><path class="cls-4" d="M608.48,489.16a25.82,25.82,0,0,0-1.25,8.82c0,1.1.25,2.79,1.25,3.31a3.69,3.69,0,0,0,2.52,0,8.18,8.18,0,0,0,3.77-2.21c3.29-3.2,5-6.61,5-8.82,0-2.47-1.24-3.51-3.77-4.41C612,484.38,609.2,486.74,608.48,489.16Z"/><path class="cls-4" d="M613.46,486.77s1.2-4.68,2.51-4.46,2.57,5.74,0,5.74S613.46,486.77,613.46,486.77Z"/><path class="cls-4" d="M614.77,487s2.81-3.77,5.17-3.54-2.36,6.61-2.51,5.62S614.77,487,614.77,487Z"/><path class="cls-5" d="M574.69,489.16a6.39,6.39,0,0,0-6.64,6.08,6.45,6.45,0,1,0,6.64-6.08Z"/><path class="cls-5" d="M574.79,492.46V485.7s-.4-3.92,2-3.92,1.88,4.08,1.88,4.08l-1.08,6.6Z"/><path class="cls-5" d="M574.38,492.46l.12-6.76s.45-3.92-2.25-3.92-2,4.08-2,4.08l1.09,6.6Z"/><path class="cls-4" d="M763.45,490.45a25.83,25.83,0,0,0-1.26,8.83c0,1.1.25,2.79,1.26,3.31a3.72,3.72,0,0,0,2.51,0,8.21,8.21,0,0,0,3.77-2.21c3.3-3.21,5-6.62,5-8.83,0-2.46-1.24-3.5-3.77-4.41C766.91,485.68,764.17,488,763.45,490.45Z"/><path class="cls-4" d="M768.42,488.06s1.21-4.67,2.52-4.45,2.56,5.74,0,5.74S768.42,488.06,768.42,488.06Z"/><path class="cls-4" d="M769.73,488.24s2.82-3.77,5.18-3.54-2.36,6.61-2.51,5.63S769.73,488.24,769.73,488.24Z"/><path class="cls-5" d="M729.66,490.45a6.41,6.41,0,0,0-6.64,6.08,6.45,6.45,0,1,0,6.64-6.08Z"/><path class="cls-5" d="M729.76,493.75V487s-.4-3.93,2-3.93,1.87,4.09,1.87,4.09l-1.08,6.59Z"/><path class="cls-5" d="M729.35,493.75l.11-6.75s.45-3.93-2.25-3.93-1.94,4.09-1.94,4.09l1.09,6.59Z"/><path class="cls-4" d="M799,113.05a25.83,25.83,0,0,0-1.26,8.83c0,1.1.25,2.79,1.26,3.31a3.72,3.72,0,0,0,2.51,0,8.21,8.21,0,0,0,3.77-2.21c3.3-3.21,5-6.62,5-8.83,0-2.46-1.24-3.5-3.77-4.41C802.46,108.28,799.71,110.63,799,113.05Z"/><path class="cls-4" d="M804,110.66s1.21-4.67,2.52-4.45,2.56,5.74,0,5.74S804,110.66,804,110.66Z"/><path class="cls-4" d="M805.27,110.84s2.82-3.77,5.18-3.54-2.36,6.61-2.51,5.63S805.27,110.84,805.27,110.84Z"/><path class="cls-5" d="M804.64,153.1a6.39,6.39,0,0,0-6.64,6.08,6.44,6.44,0,1,0,6.64-6.08Z"/><path class="cls-5" d="M804.74,156.4v-6.75s-.41-3.93,2-3.93,1.88,4.08,1.88,4.08l-1.08,6.6Z"/><path class="cls-5" d="M804.33,156.4l.11-6.75s.45-3.93-2.25-3.93-2,4.08-2,4.08l1.09,6.6Z"/><path class="cls-4" d="M799,191.32a25.76,25.76,0,0,0-1.26,8.82c0,1.11.25,2.79,1.26,3.31a3.66,3.66,0,0,0,2.51,0,8.13,8.13,0,0,0,3.77-2.2c3.3-3.21,5-6.62,5-8.83,0-2.47-1.24-3.51-3.77-4.41C802.46,186.55,799.71,188.9,799,191.32Z"/><path class="cls-4" d="M804,188.93s1.21-4.68,2.52-4.46,2.56,5.74,0,5.74S804,188.93,804,188.93Z"/><path class="cls-4" d="M805.27,189.11s2.82-3.77,5.18-3.54-2.36,6.61-2.51,5.63S805.27,189.11,805.27,189.11Z"/><path class="cls-5" d="M803.23,232a6.39,6.39,0,0,0-6.64,6.08,6.45,6.45,0,1,0,6.64-6.08Z"/><path class="cls-5" d="M803.33,235.27v-6.76s-.4-3.93,2-3.93,1.87,4.09,1.87,4.09l-1.08,6.6Z"/><path class="cls-5" d="M802.92,235.27l.11-6.76s.45-3.93-2.24-3.93-1.95,4.09-1.95,4.09l1.09,6.6Z"/><path class="cls-4" d="M797.58,271.59a25.82,25.82,0,0,0-1.25,8.82c0,1.11.25,2.79,1.25,3.31a3.69,3.69,0,0,0,2.52,0,8.13,8.13,0,0,0,3.77-2.2c3.3-3.21,5-6.62,5-8.83,0-2.47-1.24-3.5-3.77-4.41C801.05,266.82,798.3,269.17,797.58,271.59Z"/><path class="cls-4" d="M802.56,269.2s1.2-4.68,2.51-4.45,2.57,5.73.06,5.73S802.56,269.2,802.56,269.2Z"/><path class="cls-4" d="M803.87,269.38s2.82-3.77,5.18-3.54-2.36,6.61-2.52,5.63S803.87,269.38,803.87,269.38Z"/><path class="cls-5" d="M803.23,310.24a6.39,6.39,0,0,0-6.64,6.07,6.45,6.45,0,1,0,6.64-6.07Z"/><path class="cls-5" d="M803.33,313.53v-6.75s-.4-3.93,2-3.93,1.87,4.09,1.87,4.09l-1.08,6.59Z"/><path class="cls-5" d="M802.92,313.53l.11-6.75s.45-3.93-2.24-3.93-1.95,4.09-1.95,4.09l1.09,6.59Z"/><path class="cls-4" d="M797.58,348.45a25.88,25.88,0,0,0-1.25,8.83c0,1.1.25,2.79,1.25,3.31a3.75,3.75,0,0,0,2.52,0,8.21,8.21,0,0,0,3.77-2.21c3.3-3.21,5-6.62,5-8.83,0-2.46-1.24-3.5-3.77-4.41C801.05,343.68,798.3,346,797.58,348.45Z"/><path class="cls-4" d="M802.56,346.06s1.2-4.67,2.51-4.45,2.57,5.74.06,5.74S802.56,346.06,802.56,346.06Z"/><path class="cls-4" d="M803.87,346.24s2.82-3.77,5.18-3.54-2.36,6.61-2.52,5.63S803.87,346.24,803.87,346.24Z"/><path class="cls-5" d="M803.23,387a6.41,6.41,0,0,0-6.64,6.08,6.45,6.45,0,1,0,6.64-6.08Z"/><path class="cls-5" d="M803.33,390.29v-6.75s-.4-3.93,2-3.93,1.87,4.09,1.87,4.09l-1.08,6.59Z"/><path class="cls-5" d="M802.92,390.29l.11-6.75s.45-3.93-2.24-3.93-1.95,4.09-1.95,4.09l1.09,6.59Z"/><path class="cls-4" d="M797.58,426.61a25.93,25.93,0,0,0-1.25,8.83c0,1.1.25,2.79,1.25,3.31a3.69,3.69,0,0,0,2.52,0,8.12,8.12,0,0,0,3.77-2.21c3.3-3.21,5-6.62,5-8.82,0-2.47-1.24-3.51-3.77-4.42C801.05,421.84,798.3,424.2,797.58,426.61Z"/><path class="cls-4" d="M802.56,424.23s1.2-4.68,2.51-4.46,2.57,5.74.06,5.74S802.56,424.23,802.56,424.23Z"/><path class="cls-4" d="M803.87,424.41s2.82-3.77,5.18-3.54-2.36,6.61-2.52,5.62S803.87,424.41,803.87,424.41Z"/><path class="cls-5" d="M803.23,465.26a6.39,6.39,0,0,0-6.64,6.08,6.45,6.45,0,1,0,6.64-6.08Z"/><path class="cls-5" d="M803.33,468.56v-6.75s-.4-3.93,2-3.93,1.87,4.08,1.87,4.08l-1.08,6.6Z"/><path class="cls-5" d="M802.92,468.56l.11-6.75s.45-3.93-2.24-3.93-1.95,4.08-1.95,4.08l1.09,6.6Z"/><path class="cls-5" d="M654.72,52a6.39,6.39,0,0,0-6.64,6.08A6.44,6.44,0,1,0,654.72,52Z"/><path class="cls-5" d="M654.82,55.29V48.53s-.4-3.93,2-3.93,1.87,4.09,1.87,4.09l-1.08,6.6Z"/><path class="cls-5" d="M654.41,55.29l.11-6.76s.45-3.93-2.25-3.93-1.95,4.09-1.95,4.09l1.09,6.6Z"/><path class="cls-4" d="M611.16,52.16A25.81,25.81,0,0,0,609.9,61c0,1.11.25,2.8,1.26,3.31a3.61,3.61,0,0,0,2.51,0,8.13,8.13,0,0,0,3.77-2.2c3.3-3.21,5-6.62,5-8.83,0-2.47-1.24-3.5-3.77-4.41C614.63,47.39,611.88,49.74,611.16,52.16Z"/><path class="cls-4" d="M616.13,49.77s1.21-4.68,2.52-4.45,2.56,5.74.05,5.74S616.13,49.77,616.13,49.77Z"/><path class="cls-4" d="M617.44,50s2.82-3.77,5.18-3.54S620.26,53,620.11,52,617.44,50,617.44,50Z"/><path class="cls-5" d="M577.37,52.16a6.39,6.39,0,0,0-6.64,6.08,6.45,6.45,0,1,0,6.64-6.08Z"/><path class="cls-5" d="M577.47,55.46V48.71s-.4-3.93,2-3.93,1.87,4.08,1.87,4.08l-1.08,6.6Z"/><path class="cls-5" d="M577.06,55.46l.11-6.75s.45-3.93-2.24-3.93S573,48.86,573,48.86l1.09,6.6Z"/><path class="cls-4" d="M534.07,51.81a25.83,25.83,0,0,0-1.26,8.83c0,1.1.25,2.79,1.26,3.31a3.72,3.72,0,0,0,2.51,0,8.21,8.21,0,0,0,3.77-2.21c3.3-3.21,5-6.62,5-8.83,0-2.46-1.24-3.5-3.77-4.41C537.53,47,534.79,49.4,534.07,51.81Z"/><path class="cls-4" d="M539,49.42s1.21-4.67,2.52-4.45,2.56,5.74.05,5.74S539,49.42,539,49.42Z"/><path class="cls-4" d="M540.35,49.6s2.82-3.77,5.18-3.54-2.36,6.61-2.51,5.63S540.35,49.6,540.35,49.6Z"/><g class="cls-6"><line x1="391.93" y1="172.79" x2="738.9" y2="172.79"/><line class="cls-7" x1="391.93" y1="172.79" x2="392.43" y2="172.79"/><line class="cls-8" x1="393.43" y1="172.79" x2="737.9" y2="172.79"/><line class="cls-7" x1="738.4" y1="172.79" x2="738.9" y2="172.79"/></g><g class="cls-6"><line x1="391.93" y1="231.08" x2="738.9" y2="231.08"/><line class="cls-7" x1="391.93" y1="231.08" x2="392.43" y2="231.08"/><line class="cls-8" x1="393.43" y1="231.08" x2="737.9" y2="231.08"/><line class="cls-7" x1="738.4" y1="231.08" x2="738.9" y2="231.08"/></g><g class="cls-6"><line x1="391.93" y1="288.68" x2="738.9" y2="288.68"/><line class="cls-7" x1="391.93" y1="288.68" x2="392.43" y2="288.68"/><line class="cls-8" x1="393.43" y1="288.68" x2="737.9" y2="288.68"/><line class="cls-7" x1="738.4" y1="288.68" x2="738.9" y2="288.68"/></g><g class="cls-6"><line x1="391.93" y1="347.68" x2="738.9" y2="347.68"/><line class="cls-7" x1="391.93" y1="347.68" x2="392.43" y2="347.68"/><line class="cls-8" x1="393.43" y1="347.68" x2="737.9" y2="347.68"/><line class="cls-7" x1="738.4" y1="347.68" x2="738.9" y2="347.68"/></g><g class="cls-6"><line x1="391.93" y1="405.27" x2="738.9" y2="405.27"/><line class="cls-7" x1="391.93" y1="405.27" x2="392.43" y2="405.27"/><line class="cls-8" x1="393.43" y1="405.27" x2="737.9" y2="405.27"/><line class="cls-7" x1="738.4" y1="405.27" x2="738.9" y2="405.27"/></g></g></g></svg>