<svg xmlns="http://www.w3.org/2000/svg" viewBox="0 0 390.43 112.9"><defs><style>.cls-1{fill:#f39221;stroke-width:0.5px;}.cls-1,.cls-2{stroke:#010101;stroke-miterlimit:10;}.cls-2,.cls-3{fill:#010101;}.cls-2{stroke-width:0.25px;}.cls-4{fill:#f5b2c8;}.cls-5{fill:#493c16;}</style></defs><g id="Layer_2" data-name="Layer 2"><g id="Layer_1-2" data-name="Layer 1"><ellipse class="cls-1" cx="194.18" cy="56.45" rx="137.07" ry="56.2"/><path class="cls-2" d="M97.82,54.47H109a4.6,4.6,0,0,0,4.6-4.59v-12H117v12a4.6,4.6,0,0,0,4.6,4.59h11.17v3.42H121.61a4.6,4.6,0,0,0-4.6,4.6V74.78h-3.42V62.49a4.6,4.6,0,0,0-4.6-4.6H97.82Z"/><path class="cls-3" d="M140.37,55.86c0-6.91,1.15-9.37,3.45-12.86a11.16,11.16,0,0,1,9.9-5.24q7,0,10.19,5.15c2.15,3.44,3.23,5.93,3.23,13s-1.17,9.37-3.49,12.86S157.91,74,153.38,74a11.93,11.93,0,0,1-6-1.41,10.92,10.92,0,0,1-4-4.09,20,20,0,0,1-2.27-6.53A22.09,22.09,0,0,1,140.37,55.86Zm5.52.06a24.43,24.43,0,0,0,.41,4.77,25.9,25.9,0,0,0,1.29,5.83,9.57,9.57,0,0,0,2.3,3.76,4.85,4.85,0,0,0,3.43,1.32q4.55,0,6.42-4.48c1.25-3,1.87-4.89,1.87-11.2a28.68,28.68,0,0,0-.35-4.78,23,23,0,0,0-1.26-5.8,9.2,9.2,0,0,0-2.45-3.73,5.64,5.64,0,0,0-3.83-1.32c-2.88,0-4.9,1.49-6.07,4.45S145.89,49.6,145.89,55.92Z"/><path class="cls-3" d="M180.05,39.06c1.49-.34,2.95-.63,4.37-.86h1.44V70.45l1.08,1.38v1.44h-7.32V71.83l1.06-1.38V42.23L179,41.77"/><path class="cls-3" d="M191.64,57.36V55.57L208.32,39.3l4.18,2.53-8.91,8.7-5,5,2.15,1.79,13.57,11.43-3.36,4Z"/><path class="cls-3" d="M226.91,39.51c1.49-.35,3-.63,4.37-.86h1.44V70.89l1.08,1.39v1.44h-7.32V72.28l1.06-1.39V42.68l-1.64-.47"/><path class="cls-3" d="M238.5,57.8V56l16.68-16.27,4.18,2.53L250.45,51,245.5,56l4.89,4.52,10.83,8.69-3.36,4Z"/><path class="cls-3" d="M275.74,39.54c1.5-.34,3-.63,4.38-.86h1.44V70.93l1.08,1.38v1.44h-7.32V72.31l1.06-1.38V42.71l-1.64-.46"/><path class="cls-4" d="M20.6,46.66C9.85,46.64.6,54.07,0,65.49c-.6,11.84,9.85,21.76,21.19,21a20.36,20.36,0,0,0,18.67-21C39.38,55.44,30.16,46.68,20.6,46.66Z"/><path class="cls-4" d="M20.9,56.88V36s-1.24-12.16,6.23-12.16,5.81,12.65,5.81,12.65L29.59,56.88Z"/><path class="cls-4" d="M19.64,56.88,20,36s1.39-12.16-7-12.16S7,36.44,7,36.44l3.38,20.44Z"/><path class="cls-5" d="M352.88,47.68C350.77,54.78,349,60.77,349,75c0,3.42.78,8.65,3.9,10.25,2.53,1.31,5.69.52,7.78,0a25.19,25.19,0,0,0,11.68-6.83c10.22-9.94,15.58-20.51,15.58-27.34,0-7.65-3.84-10.86-11.68-13.68C363.61,32.9,355.1,40.19,352.88,47.68Z"/><path class="cls-5" d="M368.29,40.28s3.72-14.49,7.78-13.8,7.95,17.78.17,17.78S368.29,40.28,368.29,40.28Z"/><path class="cls-5" d="M372.34,40.84s8.73-11.68,16.05-11-7.32,20.47-7.79,17.42S372.34,40.84,372.34,40.84Z"/></g></g></svg>