<?xml version="1.0" encoding="UTF-8"?>
<svg id="_레이어_2" data-name="레이어 2" xmlns="http://www.w3.org/2000/svg" viewBox="0 0 249.5 133.5">
  <defs>
    <style>
      .cls-1 {
        fill: #2e256d;
      }

      .cls-1, .cls-2 {
        stroke: #000;
        stroke-miterlimit: 10;
        stroke-width: .5px;
      }

      .cls-2 {
        fill: #f2f2f2;
      }

      .cls-3, .cls-4, .cls-5, .cls-6 {
        stroke-width: 0px;
      }

      .cls-4 {
        fill: #07a100;
      }

      .cls-5 {
        fill: #ff9c39;
      }

      .cls-6 {
        fill: #ef0000;
      }
    </style>
  </defs>
  <g id="_레이어_1-2" data-name="레이어 1">
    <rect class="cls-2" x=".25" y="6.25" width="249" height="127"/>
    <path class="cls-3" d="m28.1,65.36v-3.89h-4.5v-19.44h4.5v-3.89h4.5v-3.89h18v3.89h4.5v7.78h-4.5v-3.89h-4.5v-3.89h-9v3.89h-4.5v19.44h4.5v3.89h9v-3.89h4.5v-3.89h4.5v7.78h-4.5v3.89h-18v-3.89h-4.5Z"/>
    <path class="cls-3" d="m74,69.25v-3.89h4.5v-15.56h-4.5v-3.89h-4.5v-3.89h-4.5v-7.78h9v7.78h4.5v3.89h9v-3.89h4.5v-7.78h9v7.78h-4.5v3.89h-4.5v3.89h-4.5v15.56h4.5v3.89h-18Z"/>
    <path class="cls-3" d="m113.5,38.14h-4.5v-3.89h27v3.89h4.5v11.67h-4.5v3.89h4.5v11.67h-4.5v3.89h-27v-3.89h4.5v-27.22Zm18,11.67v-11.67h-9v11.67h9Zm0,15.56v-11.67h-9v11.67h9Z"/>
    <path class="cls-3" d="m152.3,38.14h-4.5v-3.89h31.5v11.67h-4.5v-3.89h-4.5v-3.89h-9v11.67h4.5v-3.89h4.5v11.67h-4.5v-3.89h-4.5v11.67h9v-3.89h4.5v-3.89h4.5v11.67h-31.5v-3.89h4.5v-27.22Z"/>
    <path class="cls-3" d="m211.7,69.25v-11.67h-4.5v-3.89h-4.5v15.56h-13.5v-3.89h4.5v-27.22h-4.5v-3.89h27v3.89h4.5v11.67h-4.5v7.78h4.5v7.78h4.5v3.89h-13.5Zm0-19.44v-11.67h-9v11.67h9Z"/>
    <path class="cls-3" d="m29.6,103.25h-5.38v-19.43h5.38v12.95h2.69v-2.16h2.69v2.16h2.69v-12.95h5.38v19.43h-5.38v-2.16h-2.69v-2.16h-2.69v2.16h-2.69v2.16Z"/>
    <path class="cls-3" d="m68.94,101.09v-15.11h2.69v-2.16h13.44v2.16h2.69v15.11h-2.69v2.16h-13.44v-2.16h-2.69Zm13.44,0v-15.11h-8.06v15.11h8.06Z"/>
    <path class="cls-3" d="m127.44,103.25v-6.48h-2.69v-2.16h-2.69v8.63h-8.06v-2.16h2.69v-15.11h-2.69v-2.16h16.12v2.16h2.69v6.48h-2.69v4.32h2.69v4.32h2.69v2.16h-8.06Zm0-10.79v-6.48h-5.38v6.48h5.38Z"/>
    <path class="cls-3" d="m169.42,85.98v15.11h5.38v-2.16h2.69v-2.16h2.69v6.48h-18.81v-2.16h2.69v-15.11h-2.69v-2.16h10.75v2.16h-2.69Z"/>
    <path class="cls-3" d="m207.76,85.98h-2.69v-2.16h13.44v2.16h2.69v2.16h2.69v10.79h-2.69v2.16h-2.69v2.16h-13.44v-2.16h2.69v-15.11Zm8.06,15.11v-2.16h2.69v-10.79h-2.69v-2.16h-2.69v15.11h2.69Z"/>
    <rect class="cls-1" x=".25" y=".25" width="249" height="11"/>
    <circle class="cls-6" cx="7.73" cy="5.75" r="2.5"/>
    <circle class="cls-5" cx="17.73" cy="5.75" r="2.5"/>
    <circle class="cls-4" cx="27.73" cy="5.75" r="2.5"/>
  </g>
</svg>