<?xml version="1.0" encoding="UTF-8"?>
<svg id="_레이어_1" data-name="레이어 1" xmlns="http://www.w3.org/2000/svg" viewBox="0 0 600 378">
  <defs>
    <style>
      .cls-1 {
        letter-spacing: .05em;
      }

      .cls-2 {
        letter-spacing: .05em;
      }

      .cls-3 {
        letter-spacing: .04em;
      }

      .cls-4 {
        fill: #ff940a;
      }

      .cls-4, .cls-5, .cls-6, .cls-7, .cls-8 {
        stroke: #000;
        stroke-miterlimit: 10;
      }

      .cls-4, .cls-7, .cls-8 {
        stroke-width: .5px;
      }

      .cls-5 {
        font-family: GangwonEduPowerExtraBold, GangwonEduPower;
        font-size: 12.2px;
        stroke-width: .1px;
      }

      .cls-6 {
        stroke-width: .25px;
      }

      .cls-7 {
        stroke-dasharray: 0 0 1 1;
      }

      .cls-7, .cls-8 {
        fill: none;
      }

      .cls-9 {
        opacity: .5;
      }

      .cls-10 {
        letter-spacing: .02em;
      }

      .cls-11, .cls-12, .cls-13, .cls-14 {
        stroke-width: 0px;
      }

      .cls-12 {
        fill: #4a3a00;
      }

      .cls-13 {
        fill: #ffe7e0;
      }

      .cls-14 {
        fill: #ffb4c9;
      }
    </style>
  </defs>
  <g>
    <path class="cls-13" d="m32.88,377.5c-17.85,0-32.38-14.94-32.38-33.29V33.79C.5,15.44,15.02.5,32.88.5h534.25c17.85,0,32.38,14.94,32.38,33.29v310.41c0,18.36-14.52,33.29-32.38,33.29H32.88Z"/>
    <path class="cls-11" d="m567.12,1c17.58,0,31.88,14.71,31.88,32.79v310.41c0,18.08-14.3,32.79-31.88,32.79H32.88c-17.58,0-31.88-14.71-31.88-32.79V33.79C1,15.71,15.3,1,32.88,1h534.25m0-1H32.88C14.72,0,0,15.13,0,33.79v310.41c0,18.66,14.72,33.79,32.88,33.79h534.25c18.16,0,32.88-15.13,32.88-33.79V33.79c0-18.66-14.72-33.79-32.88-33.79h0Z"/>
  </g>
  <ellipse class="cls-4" cx="299.44" cy="39.88" rx="61.02" ry="25.02"/>
  <path class="cls-6" d="m256.54,39h4.97c1.13,0,2.05-.92,2.05-2.05v-5.33h1.52v5.33c0,1.13.92,2.05,2.05,2.05h4.97v1.52h-4.97c-1.13,0-2.05.92-2.05,2.05v5.47h-1.52v-5.47c0-1.13-.92-2.05-2.05-2.05h-4.97v-1.52Z"/>
  <path class="cls-11" d="m275.48,39.62c0-3.08.51-4.17,1.54-5.72,1.02-1.55,2.49-2.33,4.41-2.33,2.07,0,3.58.77,4.54,2.29.96,1.53,1.43,2.64,1.43,5.76s-.52,4.17-1.55,5.72c-1.03,1.56-2.56,2.33-4.57,2.33-1.04,0-1.93-.21-2.67-.63-.73-.42-1.33-1.02-1.79-1.82s-.8-1.76-1.01-2.91c-.21-1.14-.32-1.23-.32-2.7Zm2.46.03c0,1.23.06,1.12.18,2.13.12,1.01.31,1.87.58,2.59.26.72.61,1.28,1.02,1.67.42.39.93.59,1.52.59,1.35,0,2.3-.66,2.86-1.99s.83-2.18.83-4.99c0-1.23-.05-1.12-.15-2.13s-.29-1.87-.56-2.58c-.27-.72-.64-1.27-1.09-1.66s-1.02-.59-1.7-.59c-1.28,0-2.18.66-2.7,1.98-.52,1.32-.78,2.16-.78,4.97Z"/>
  <path class="cls-11" d="m293.15,32.14c.67-.15,1.32-.28,1.95-.38h.64v14.36l.48.61v.64h-3.26v-.64l.47-.61v-12.56l-.73-.21"/>
  <path class="cls-11" d="m298.31,40.29v-.79l7.43-7.24,1.86,1.13-3.97,3.87-2.2,2.25.96.79,6.04,5.09-1.49,1.8-8.62-6.88Z"/>
  <path class="cls-11" d="m314.01,32.34c.67-.15,1.32-.28,1.95-.38h.64v14.36l.48.61v.64h-3.26v-.64l.47-.61v-12.56l-.73-.21"/>
  <path class="cls-11" d="m319.17,40.49v-.79l7.43-7.24,1.86,1.13-3.97,3.87-2.2,2.25,2.18,2.01,4.82,3.87-1.49,1.8-8.62-6.88Z"/>
  <path class="cls-11" d="m335.75,32.36c.67-.15,1.32-.28,1.95-.38h.64v14.36l.48.61v.64h-3.26v-.64l.47-.61v-12.56l-.73-.21"/>
  <text class="cls-5" transform="translate(278.53 118.33)"><tspan class="cls-1"><tspan x="0" y="0">Name</tspan></tspan><tspan class="cls-2" x="0" y="41.49">Date </tspan><tspan class="cls-3" x="34.59" y="41.49">o</tspan><tspan class="cls-1" x="42.97" y="41.49">f Birth</tspan><tspan class="cls-1"><tspan x="0" y="82.99">Living in</tspan></tspan><tspan class="cls-1" x="0" y="124.48">Hob</tspan><tspan class="cls-10" x="26.27" y="124.48">b</tspan><tspan class="cls-1" x="34.39" y="124.48">y</tspan><tspan class="cls-1" x="0" y="165.97">Li</tspan><tspan x="11.19" y="165.97">k</tspan><tspan class="cls-1" x="18.54" y="165.97">e</tspan></text>
  <g>
    <path class="cls-12" d="m212.79,36.83c-.48,1.63-.89,3.01-.89,6.28,0,.79.18,1.99.89,2.36.58.3,1.31.12,1.79,0,1.37-.34,2.23-1.13,2.68-1.57,2.35-2.28,3.58-4.71,3.58-6.28,0-1.76-.88-2.5-2.68-3.14-2.9-1.04-4.86.64-5.37,2.36Z"/>
    <path class="cls-12" d="m216.33,35.13s.86-3.33,1.79-3.17,1.83,4.09.04,4.09-1.83-.91-1.83-.91Z"/>
    <path class="cls-12" d="m217.26,35.26s2.01-2.68,3.69-2.52-1.68,4.7-1.79,4-1.9-1.48-1.9-1.48Z"/>
  </g>
  <g>
    <path class="cls-14" d="m188.73,36.83c-2.47,0-4.59,1.7-4.73,4.33-.14,2.72,2.26,5,4.87,4.84,2.38-.15,4.42-2.31,4.29-4.84-.12-2.31-2.23-4.32-4.43-4.33Z"/>
    <path class="cls-14" d="m188.8,39.18v-4.81s-.29-2.8,1.43-2.8,1.33,2.91,1.33,2.91l-.77,4.7h-2Z"/>
    <path class="cls-14" d="m188.51,39.18l.08-4.81s.32-2.8-1.6-2.8-1.39,2.91-1.39,2.91l.78,4.7h2.13Z"/>
  </g>
  <g>
    <path class="cls-12" d="m157.91,36.58c-.48,1.63-.89,3.01-.89,6.28,0,.79.18,1.99.89,2.36.58.3,1.31.12,1.79,0,1.37-.34,2.23-1.13,2.68-1.57,2.35-2.28,3.58-4.71,3.58-6.28,0-1.76-.88-2.5-2.68-3.14-2.9-1.04-4.86.64-5.37,2.36Z"/>
    <path class="cls-12" d="m161.45,34.88s.86-3.33,1.79-3.17,1.83,4.09.04,4.09-1.83-.91-1.83-.91Z"/>
    <path class="cls-12" d="m162.38,35.01s2.01-2.68,3.69-2.52-1.68,4.7-1.79,4-1.9-1.48-1.9-1.48Z"/>
  </g>
  <g>
    <path class="cls-14" d="m133.86,36.58c-2.47,0-4.59,1.7-4.73,4.33-.14,2.72,2.26,5,4.87,4.84,2.38-.15,4.42-2.31,4.29-4.84-.12-2.31-2.23-4.32-4.43-4.33Z"/>
    <path class="cls-14" d="m133.93,38.93v-4.81s-.29-2.8,1.43-2.8,1.33,2.91,1.33,2.91l-.77,4.7h-2Z"/>
    <path class="cls-14" d="m133.64,38.93l.08-4.81s.32-2.8-1.6-2.8-1.39,2.91-1.39,2.91l.78,4.7h2.13Z"/>
  </g>
  <g>
    <path class="cls-12" d="m102.85,36.7c-.48,1.63-.89,3.01-.89,6.28,0,.79.18,1.99.89,2.36.58.3,1.31.12,1.79,0,1.37-.34,2.23-1.13,2.68-1.57,2.35-2.28,3.58-4.71,3.58-6.28,0-1.76-.88-2.5-2.68-3.14-2.9-1.04-4.86.64-5.37,2.36Z"/>
    <path class="cls-12" d="m106.39,35s.86-3.33,1.79-3.17,1.83,4.09.04,4.09-1.83-.91-1.83-.91Z"/>
    <path class="cls-12" d="m107.32,35.13s2.01-2.68,3.69-2.52-1.68,4.7-1.79,4-1.9-1.48-1.9-1.48Z"/>
  </g>
  <g>
    <path class="cls-14" d="m78.79,36.71c-2.47,0-4.59,1.7-4.73,4.33-.14,2.72,2.26,5,4.87,4.84,2.38-.15,4.42-2.31,4.29-4.84-.12-2.31-2.23-4.32-4.43-4.33Z"/>
    <path class="cls-14" d="m78.86,39.05v-4.81s-.29-2.8,1.43-2.8,1.33,2.91,1.33,2.91l-.77,4.7h-2Z"/>
    <path class="cls-14" d="m78.57,39.05l.08-4.81s.32-2.8-1.6-2.8-1.39,2.91-1.39,2.91l.78,4.7h2.13Z"/>
  </g>
  <g>
    <path class="cls-12" d="m47.97,36.46c-.48,1.63-.89,3.01-.89,6.28,0,.79.18,1.99.89,2.36.58.3,1.31.12,1.79,0,1.37-.34,2.23-1.13,2.68-1.57,2.35-2.28,3.58-4.71,3.58-6.28,0-1.76-.88-2.5-2.68-3.14-2.9-1.04-4.86.64-5.37,2.36Z"/>
    <path class="cls-12" d="m51.51,34.76s.86-3.33,1.79-3.17,1.83,4.09.04,4.09-1.83-.91-1.83-.91Z"/>
    <path class="cls-12" d="m52.44,34.88s2.01-2.68,3.69-2.52-1.68,4.7-1.79,4-1.9-1.48-1.9-1.48Z"/>
  </g>
  <g>
    <path class="cls-14" d="m29.92,53.46c-2.47,0-4.59,1.7-4.73,4.33-.14,2.72,2.26,5,4.87,4.84,2.38-.15,4.42-2.31,4.29-4.84-.12-2.31-2.23-4.32-4.43-4.33Z"/>
    <path class="cls-14" d="m29.99,55.81v-4.81s-.29-2.8,1.43-2.8,1.33,2.91,1.33,2.91l-.77,4.7h-2Z"/>
    <path class="cls-14" d="m29.7,55.81l.08-4.81s.32-2.8-1.6-2.8-1.39,2.91-1.39,2.91l.78,4.7h2.13Z"/>
  </g>
  <g>
    <path class="cls-12" d="m25.9,81.66c-.48,1.63-.89,3.01-.89,6.28,0,.79.18,1.99.89,2.36.58.3,1.31.12,1.79,0,1.37-.34,2.23-1.13,2.68-1.57,2.35-2.28,3.58-4.71,3.58-6.28,0-1.76-.88-2.5-2.68-3.14-2.9-1.04-4.86.64-5.37,2.36Z"/>
    <path class="cls-12" d="m29.44,79.96s.86-3.33,1.79-3.17,1.83,4.09.04,4.09-1.83-.91-1.83-.91Z"/>
    <path class="cls-12" d="m30.37,80.09s2.01-2.68,3.69-2.52-1.68,4.7-1.79,4-1.9-1.48-1.9-1.48Z"/>
  </g>
  <g>
    <path class="cls-14" d="m29.92,110.17c-2.47,0-4.59,1.7-4.73,4.33-.14,2.72,2.26,5,4.87,4.84,2.38-.15,4.42-2.31,4.29-4.84-.12-2.31-2.23-4.32-4.43-4.33Z"/>
    <path class="cls-14" d="m29.99,112.52v-4.81s-.29-2.8,1.43-2.8,1.33,2.91,1.33,2.91l-.77,4.7h-2Z"/>
    <path class="cls-14" d="m29.7,112.52l.08-4.81s.32-2.8-1.6-2.8-1.39,2.91-1.39,2.91l.78,4.7h2.13Z"/>
  </g>
  <g>
    <path class="cls-12" d="m25.9,137.38c-.48,1.63-.89,3.01-.89,6.28,0,.79.18,1.99.89,2.36.58.3,1.31.12,1.79,0,1.37-.34,2.23-1.13,2.68-1.57,2.35-2.28,3.58-4.71,3.58-6.28,0-1.76-.88-2.5-2.68-3.14-2.9-1.04-4.86.64-5.37,2.36Z"/>
    <path class="cls-12" d="m29.44,135.68s.86-3.33,1.79-3.17,1.83,4.09.04,4.09-1.83-.91-1.83-.91Z"/>
    <path class="cls-12" d="m30.37,135.81s2.01-2.68,3.69-2.52-1.68,4.7-1.79,4-1.9-1.48-1.9-1.48Z"/>
  </g>
  <g>
    <path class="cls-14" d="m28.92,166.32c-2.47,0-4.59,1.7-4.73,4.33-.14,2.72,2.26,5,4.87,4.84,2.38-.15,4.42-2.31,4.29-4.84-.12-2.31-2.23-4.32-4.43-4.33Z"/>
    <path class="cls-14" d="m28.99,168.66v-4.81s-.29-2.8,1.43-2.8,1.33,2.91,1.33,2.91l-.77,4.7h-2Z"/>
    <path class="cls-14" d="m28.7,168.66l.08-4.81s.32-2.8-1.6-2.8-1.39,2.91-1.39,2.91l.78,4.7h2.13Z"/>
  </g>
  <g>
    <path class="cls-12" d="m24.9,194.52c-.48,1.63-.89,3.01-.89,6.28,0,.79.18,1.99.89,2.36.58.3,1.31.12,1.79,0,1.37-.34,2.23-1.13,2.68-1.57,2.35-2.28,3.58-4.71,3.58-6.28,0-1.76-.88-2.5-2.68-3.14-2.9-1.04-4.86.64-5.37,2.36Z"/>
    <path class="cls-12" d="m28.44,192.82s.86-3.33,1.79-3.17,1.83,4.09.04,4.09-1.83-.91-1.83-.91Z"/>
    <path class="cls-12" d="m29.37,192.95s2.01-2.68,3.69-2.52-1.68,4.7-1.79,4-1.9-1.48-1.9-1.48Z"/>
  </g>
  <g>
    <path class="cls-14" d="m28.92,222.03c-2.47,0-4.59,1.7-4.73,4.33-.14,2.72,2.26,5,4.87,4.84,2.38-.15,4.42-2.31,4.29-4.84-.12-2.31-2.23-4.32-4.43-4.33Z"/>
    <path class="cls-14" d="m28.99,224.38v-4.81s-.29-2.8,1.43-2.8,1.33,2.91,1.33,2.91l-.77,4.7h-2Z"/>
    <path class="cls-14" d="m28.7,224.38l.08-4.81s.32-2.8-1.6-2.8-1.39,2.91-1.39,2.91l.78,4.7h2.13Z"/>
  </g>
  <g>
    <path class="cls-12" d="m24.9,249.23c-.48,1.63-.89,3.01-.89,6.28,0,.79.18,1.99.89,2.36.58.3,1.31.12,1.79,0,1.37-.34,2.23-1.13,2.68-1.57,2.35-2.28,3.58-4.71,3.58-6.28,0-1.76-.88-2.5-2.68-3.14-2.9-1.04-4.86.64-5.37,2.36Z"/>
    <path class="cls-12" d="m28.44,247.54s.86-3.33,1.79-3.17,1.83,4.09.04,4.09-1.83-.91-1.83-.91Z"/>
    <path class="cls-12" d="m29.37,247.66s2.01-2.68,3.69-2.52-1.68,4.7-1.79,4-1.9-1.48-1.9-1.48Z"/>
  </g>
  <g>
    <path class="cls-14" d="m28.92,276.67c-2.47,0-4.59,1.7-4.73,4.33-.14,2.72,2.26,5,4.87,4.84,2.38-.15,4.42-2.31,4.29-4.84-.12-2.31-2.23-4.32-4.43-4.33Z"/>
    <path class="cls-14" d="m28.99,279.02v-4.81s-.29-2.8,1.43-2.8,1.33,2.91,1.33,2.91l-.77,4.7h-2Z"/>
    <path class="cls-14" d="m28.7,279.02l.08-4.81s.32-2.8-1.6-2.8-1.39,2.91-1.39,2.91l.78,4.7h2.13Z"/>
  </g>
  <g>
    <path class="cls-12" d="m24.9,304.88c-.48,1.63-.89,3.01-.89,6.28,0,.79.18,1.99.89,2.36.58.3,1.31.12,1.79,0,1.37-.34,2.23-1.13,2.68-1.57,2.35-2.28,3.58-4.71,3.58-6.28,0-1.76-.88-2.5-2.68-3.14-2.9-1.04-4.86.64-5.37,2.36Z"/>
    <path class="cls-12" d="m28.44,303.18s.86-3.33,1.79-3.17,1.83,4.09.04,4.09-1.83-.91-1.83-.91Z"/>
    <path class="cls-12" d="m29.37,303.31s2.01-2.68,3.69-2.52-1.68,4.7-1.79,4-1.9-1.48-1.9-1.48Z"/>
  </g>
  <g>
    <path class="cls-14" d="m28.92,332.39c-2.47,0-4.59,1.7-4.73,4.33-.14,2.72,2.26,5,4.87,4.84,2.38-.15,4.42-2.31,4.29-4.84-.12-2.31-2.23-4.32-4.43-4.33Z"/>
    <path class="cls-14" d="m28.99,334.74v-4.81s-.29-2.8,1.43-2.8,1.33,2.91,1.33,2.91l-.77,4.7h-2Z"/>
    <path class="cls-14" d="m28.7,334.74l.08-4.81s.32-2.8-1.6-2.8-1.39,2.91-1.39,2.91l.78,4.7h2.13Z"/>
  </g>
  <g>
    <path class="cls-12" d="m212.3,347.06c-.48,1.63-.89,3.01-.89,6.28,0,.79.18,1.99.89,2.36.58.3,1.31.12,1.79,0,1.37-.34,2.23-1.13,2.68-1.57,2.35-2.28,3.58-4.71,3.58-6.28,0-1.76-.88-2.5-2.68-3.14-2.9-1.04-4.86.64-5.37,2.36Z"/>
    <path class="cls-12" d="m215.85,345.36s.86-3.33,1.79-3.17,1.83,4.09.04,4.09-1.83-.91-1.83-.91Z"/>
    <path class="cls-12" d="m216.78,345.49s2.01-2.68,3.69-2.52-1.68,4.7-1.79,4-1.9-1.48-1.9-1.48Z"/>
  </g>
  <g>
    <path class="cls-14" d="m188.25,347.06c-2.47,0-4.59,1.7-4.73,4.33-.14,2.72,2.26,5,4.87,4.84,2.38-.15,4.42-2.31,4.29-4.84-.12-2.31-2.23-4.32-4.43-4.33Z"/>
    <path class="cls-14" d="m188.32,349.41v-4.81s-.29-2.8,1.43-2.8,1.33,2.91,1.33,2.91l-.77,4.7h-2Z"/>
    <path class="cls-14" d="m188.03,349.41l.08-4.81s.32-2.8-1.6-2.8-1.39,2.91-1.39,2.91l.78,4.7h2.13Z"/>
  </g>
  <g>
    <path class="cls-12" d="m157.43,346.81c-.48,1.63-.89,3.01-.89,6.28,0,.79.18,1.99.89,2.36.58.3,1.31.12,1.79,0,1.37-.34,2.23-1.13,2.68-1.57,2.35-2.28,3.58-4.71,3.58-6.28,0-1.76-.88-2.5-2.68-3.14-2.9-1.04-4.86.64-5.37,2.36Z"/>
    <path class="cls-12" d="m160.97,345.11s.86-3.33,1.79-3.17,1.83,4.09.04,4.09-1.83-.91-1.83-.91Z"/>
    <path class="cls-12" d="m161.9,345.24s2.01-2.68,3.69-2.52-1.68,4.7-1.79,4-1.9-1.48-1.9-1.48Z"/>
  </g>
  <g>
    <path class="cls-14" d="m133.37,346.82c-2.47,0-4.59,1.7-4.73,4.33-.14,2.72,2.26,5,4.87,4.84,2.38-.15,4.42-2.31,4.29-4.84-.12-2.31-2.23-4.32-4.43-4.33Z"/>
    <path class="cls-14" d="m133.44,349.16v-4.81s-.29-2.8,1.43-2.8,1.33,2.91,1.33,2.91l-.77,4.7h-2Z"/>
    <path class="cls-14" d="m133.15,349.16l.08-4.81s.32-2.8-1.6-2.8-1.39,2.91-1.39,2.91l.78,4.7h2.13Z"/>
  </g>
  <g>
    <path class="cls-12" d="m102.37,346.94c-.48,1.63-.89,3.01-.89,6.28,0,.79.18,1.99.89,2.36.58.3,1.31.12,1.79,0,1.37-.34,2.23-1.13,2.68-1.57,2.35-2.28,3.58-4.71,3.58-6.28,0-1.76-.88-2.5-2.68-3.14-2.9-1.04-4.86.64-5.37,2.36Z"/>
    <path class="cls-12" d="m105.91,345.24s.86-3.33,1.79-3.17,1.83,4.09.04,4.09-1.83-.91-1.83-.91Z"/>
    <path class="cls-12" d="m106.84,345.37s2.01-2.68,3.69-2.52-1.68,4.7-1.79,4-1.9-1.48-1.9-1.48Z"/>
  </g>
  <g>
    <path class="cls-14" d="m78.31,346.94c-2.47,0-4.59,1.7-4.73,4.33-.14,2.72,2.26,5,4.87,4.84,2.38-.15,4.42-2.31,4.29-4.84-.12-2.31-2.23-4.32-4.43-4.33Z"/>
    <path class="cls-14" d="m78.38,349.29v-4.81s-.29-2.8,1.43-2.8,1.33,2.91,1.33,2.91l-.77,4.7h-2Z"/>
    <path class="cls-14" d="m78.09,349.29l.08-4.81s.32-2.8-1.6-2.8-1.39,2.91-1.39,2.91l.78,4.7h2.13Z"/>
  </g>
  <g>
    <path class="cls-12" d="m47.49,346.69c-.48,1.63-.89,3.01-.89,6.28,0,.79.18,1.99.89,2.36.58.3,1.31.12,1.79,0,1.37-.34,2.23-1.13,2.68-1.57,2.35-2.28,3.58-4.71,3.58-6.28,0-1.76-.88-2.5-2.68-3.14-2.9-1.04-4.86.64-5.37,2.36Z"/>
    <path class="cls-12" d="m51.03,344.99s.86-3.33,1.79-3.17,1.83,4.09.04,4.09-1.83-.91-1.83-.91Z"/>
    <path class="cls-12" d="m51.96,345.12s2.01-2.68,3.69-2.52-1.68,4.7-1.79,4-1.9-1.48-1.9-1.48Z"/>
  </g>
  <g>
    <path class="cls-12" d="m377.68,347.86c-.48,1.63-.89,3.01-.89,6.28,0,.79.18,1.99.89,2.36.58.3,1.31.12,1.79,0,1.37-.34,2.23-1.13,2.68-1.57,2.35-2.28,3.58-4.71,3.58-6.28,0-1.76-.88-2.5-2.68-3.14-2.9-1.04-4.86.64-5.37,2.36Z"/>
    <path class="cls-12" d="m381.22,346.16s.86-3.33,1.79-3.17,1.83,4.09.04,4.09-1.83-.91-1.83-.91Z"/>
    <path class="cls-12" d="m382.15,346.29s2.01-2.68,3.69-2.52-1.68,4.7-1.79,4-1.9-1.48-1.9-1.48Z"/>
  </g>
  <g>
    <path class="cls-14" d="m353.63,347.86c-2.47,0-4.59,1.7-4.73,4.33-.14,2.72,2.26,5,4.87,4.84,2.38-.15,4.42-2.31,4.29-4.84-.12-2.31-2.23-4.32-4.43-4.33Z"/>
    <path class="cls-14" d="m353.7,350.21v-4.81s-.29-2.8,1.43-2.8,1.33,2.91,1.33,2.91l-.77,4.7h-2Z"/>
    <path class="cls-14" d="m353.41,350.21l.08-4.81s.32-2.8-1.6-2.8-1.39,2.91-1.39,2.91l.78,4.7h2.13Z"/>
  </g>
  <g>
    <path class="cls-12" d="m322.8,347.61c-.48,1.63-.89,3.01-.89,6.28,0,.79.18,1.99.89,2.36.58.3,1.31.12,1.79,0,1.37-.34,2.23-1.13,2.68-1.57,2.35-2.28,3.58-4.71,3.58-6.28,0-1.76-.88-2.5-2.68-3.14-2.9-1.04-4.86.64-5.37,2.36Z"/>
    <path class="cls-12" d="m326.34,345.91s.86-3.33,1.79-3.17,1.83,4.09.04,4.09-1.83-.91-1.83-.91Z"/>
    <path class="cls-12" d="m327.28,346.04s2.01-2.68,3.69-2.52-1.68,4.7-1.79,4-1.9-1.48-1.9-1.48Z"/>
  </g>
  <g>
    <path class="cls-14" d="m298.75,347.61c-2.47,0-4.59,1.7-4.73,4.33-.14,2.72,2.26,5,4.87,4.84,2.38-.15,4.42-2.31,4.29-4.84-.12-2.31-2.23-4.32-4.43-4.33Z"/>
    <path class="cls-14" d="m298.82,349.96v-4.81s-.29-2.8,1.43-2.8,1.33,2.91,1.33,2.91l-.77,4.7h-2Z"/>
    <path class="cls-14" d="m298.53,349.96l.08-4.81s.32-2.8-1.6-2.8-1.39,2.91-1.39,2.91l.78,4.7h2.13Z"/>
  </g>
  <g>
    <path class="cls-12" d="m267.74,347.74c-.48,1.63-.89,3.01-.89,6.28,0,.79.18,1.99.89,2.36.58.3,1.31.12,1.79,0,1.37-.34,2.23-1.13,2.68-1.57,2.35-2.28,3.58-4.71,3.58-6.28,0-1.76-.88-2.5-2.68-3.14-2.9-1.04-4.86.64-5.37,2.36Z"/>
    <path class="cls-12" d="m271.28,346.04s.86-3.33,1.79-3.17,1.83,4.09.04,4.09-1.83-.91-1.83-.91Z"/>
    <path class="cls-12" d="m272.21,346.16s2.01-2.68,3.69-2.52-1.68,4.7-1.79,4-1.9-1.48-1.9-1.48Z"/>
  </g>
  <g>
    <path class="cls-14" d="m243.69,347.74c-2.47,0-4.59,1.7-4.73,4.33-.14,2.72,2.26,5,4.87,4.84,2.38-.15,4.42-2.31,4.29-4.84-.12-2.31-2.23-4.32-4.43-4.33Z"/>
    <path class="cls-14" d="m243.76,350.09v-4.81s-.29-2.8,1.43-2.8,1.33,2.91,1.33,2.91l-.77,4.7h-2Z"/>
    <path class="cls-14" d="m243.47,350.09l.08-4.81s.32-2.8-1.6-2.8-1.39,2.91-1.39,2.91l.78,4.7h2.13Z"/>
  </g>
  <g>
    <path class="cls-12" d="m488.04,348.46c-.48,1.63-.89,3.01-.89,6.28,0,.79.18,1.99.89,2.36.58.3,1.31.12,1.79,0,1.37-.34,2.23-1.13,2.68-1.57,2.35-2.28,3.58-4.71,3.58-6.28,0-1.76-.88-2.5-2.68-3.14-2.9-1.04-4.86.64-5.37,2.36Z"/>
    <path class="cls-12" d="m491.58,346.76s.86-3.33,1.79-3.17,1.83,4.09.04,4.09-1.83-.91-1.83-.91Z"/>
    <path class="cls-12" d="m492.51,346.89s2.01-2.68,3.69-2.52-1.68,4.7-1.79,4-1.9-1.48-1.9-1.48Z"/>
  </g>
  <g>
    <path class="cls-14" d="m463.98,348.46c-2.47,0-4.59,1.7-4.73,4.33-.14,2.72,2.26,5,4.87,4.84,2.38-.15,4.42-2.31,4.29-4.84-.12-2.31-2.23-4.32-4.43-4.33Z"/>
    <path class="cls-14" d="m464.05,350.81v-4.81s-.29-2.8,1.43-2.8,1.33,2.91,1.33,2.91l-.77,4.7h-2Z"/>
    <path class="cls-14" d="m463.76,350.81l.08-4.81s.32-2.8-1.6-2.8-1.39,2.91-1.39,2.91l.78,4.7h2.13Z"/>
  </g>
  <g>
    <path class="cls-12" d="m433.16,348.21c-.48,1.63-.89,3.01-.89,6.28,0,.79.18,1.99.89,2.36.58.3,1.31.12,1.79,0,1.37-.34,2.23-1.13,2.68-1.57,2.35-2.28,3.58-4.71,3.58-6.28,0-1.76-.88-2.5-2.68-3.14-2.9-1.04-4.86.64-5.37,2.36Z"/>
    <path class="cls-12" d="m436.7,346.51s.86-3.33,1.79-3.17,1.83,4.09.04,4.09-1.83-.91-1.83-.91Z"/>
    <path class="cls-12" d="m437.63,346.64s2.01-2.68,3.69-2.52-1.68,4.7-1.79,4-1.9-1.48-1.9-1.48Z"/>
  </g>
  <g>
    <path class="cls-14" d="m409.1,348.22c-2.47,0-4.59,1.7-4.73,4.33-.14,2.72,2.26,5,4.87,4.84,2.38-.15,4.42-2.31,4.29-4.84-.12-2.31-2.23-4.32-4.43-4.33Z"/>
    <path class="cls-14" d="m409.17,350.56v-4.81s-.29-2.8,1.43-2.8,1.33,2.91,1.33,2.91l-.77,4.7h-2Z"/>
    <path class="cls-14" d="m408.88,350.56l.08-4.81s.32-2.8-1.6-2.8-1.39,2.91-1.39,2.91l.78,4.7h2.13Z"/>
  </g>
  <g>
    <path class="cls-12" d="m543.47,349.13c-.48,1.63-.89,3.01-.89,6.28,0,.79.18,1.99.89,2.36.58.3,1.31.12,1.79,0,1.37-.34,2.23-1.13,2.68-1.57,2.35-2.28,3.58-4.71,3.58-6.28,0-1.76-.88-2.5-2.68-3.14-2.9-1.04-4.86.64-5.37,2.36Z"/>
    <path class="cls-12" d="m547.01,347.43s.86-3.33,1.79-3.17,1.83,4.09.04,4.09-1.83-.91-1.83-.91Z"/>
    <path class="cls-12" d="m547.95,347.56s2.01-2.68,3.69-2.52-1.68,4.7-1.79,4-1.9-1.48-1.9-1.48Z"/>
  </g>
  <g>
    <path class="cls-14" d="m519.42,349.14c-2.47,0-4.59,1.7-4.73,4.33-.14,2.72,2.26,5,4.87,4.84,2.38-.15,4.42-2.31,4.29-4.84-.12-2.31-2.23-4.32-4.43-4.33Z"/>
    <path class="cls-14" d="m519.49,351.49v-4.81s-.29-2.8,1.43-2.8,1.33,2.91,1.33,2.91l-.77,4.7h-2Z"/>
    <path class="cls-14" d="m519.2,351.49l.08-4.81s.32-2.8-1.6-2.8-1.39,2.91-1.39,2.91l.78,4.7h2.13Z"/>
  </g>
  <g>
    <path class="cls-12" d="m568.77,80.48c-.48,1.63-.89,3.01-.89,6.28,0,.79.18,1.99.89,2.36.58.3,1.31.12,1.79,0,1.37-.34,2.23-1.13,2.68-1.57,2.35-2.28,3.58-4.71,3.58-6.28,0-1.76-.88-2.5-2.68-3.14-2.9-1.04-4.86.64-5.37,2.36Z"/>
    <path class="cls-12" d="m572.31,78.78s.86-3.33,1.79-3.17,1.83,4.09.04,4.09-1.83-.91-1.83-.91Z"/>
    <path class="cls-12" d="m573.25,78.91s2.01-2.68,3.69-2.52-1.68,4.7-1.79,4-1.9-1.48-1.9-1.48Z"/>
  </g>
  <g>
    <path class="cls-14" d="m572.79,108.99c-2.47,0-4.59,1.7-4.73,4.33-.14,2.72,2.26,5,4.87,4.84,2.38-.15,4.42-2.31,4.29-4.84-.12-2.31-2.23-4.32-4.43-4.33Z"/>
    <path class="cls-14" d="m572.86,111.34v-4.81s-.29-2.8,1.43-2.8,1.33,2.91,1.33,2.91l-.77,4.7h-2Z"/>
    <path class="cls-14" d="m572.57,111.34l.08-4.81s.32-2.8-1.6-2.8-1.39,2.91-1.39,2.91l.78,4.7h2.13Z"/>
  </g>
  <g>
    <path class="cls-12" d="m568.77,136.19c-.48,1.63-.89,3.01-.89,6.28,0,.79.18,1.99.89,2.36.58.3,1.31.12,1.79,0,1.37-.34,2.23-1.13,2.68-1.57,2.35-2.28,3.58-4.71,3.58-6.28,0-1.76-.88-2.5-2.68-3.14-2.9-1.04-4.86.64-5.37,2.36Z"/>
    <path class="cls-12" d="m572.31,134.49s.86-3.33,1.79-3.17,1.83,4.09.04,4.09-1.83-.91-1.83-.91Z"/>
    <path class="cls-12" d="m573.25,134.62s2.01-2.68,3.69-2.52-1.68,4.7-1.79,4-1.9-1.48-1.9-1.48Z"/>
  </g>
  <g>
    <path class="cls-14" d="m571.79,165.13c-2.47,0-4.59,1.7-4.73,4.33-.14,2.72,2.26,5,4.87,4.84,2.38-.15,4.42-2.31,4.29-4.84-.12-2.31-2.23-4.32-4.43-4.33Z"/>
    <path class="cls-14" d="m571.86,167.48v-4.81s-.29-2.8,1.43-2.8,1.33,2.91,1.33,2.91l-.77,4.7h-2Z"/>
    <path class="cls-14" d="m571.57,167.48l.08-4.81s.32-2.8-1.6-2.8-1.39,2.91-1.39,2.91l.78,4.7h2.13Z"/>
  </g>
  <g>
    <path class="cls-12" d="m567.77,193.33c-.48,1.63-.89,3.01-.89,6.28,0,.79.18,1.99.89,2.36.58.3,1.31.12,1.79,0,1.37-.34,2.23-1.13,2.68-1.57,2.35-2.28,3.58-4.71,3.58-6.28,0-1.76-.88-2.5-2.68-3.14-2.9-1.04-4.86.64-5.37,2.36Z"/>
    <path class="cls-12" d="m571.31,191.63s.86-3.33,1.79-3.17,1.83,4.09.04,4.09-1.83-.91-1.83-.91Z"/>
    <path class="cls-12" d="m572.25,191.76s2.01-2.68,3.69-2.52-1.68,4.7-1.79,4-1.9-1.48-1.9-1.48Z"/>
  </g>
  <g>
    <path class="cls-14" d="m571.79,220.85c-2.47,0-4.59,1.7-4.73,4.33-.14,2.72,2.26,5,4.87,4.84,2.38-.15,4.42-2.31,4.29-4.84-.12-2.31-2.23-4.32-4.43-4.33Z"/>
    <path class="cls-14" d="m571.86,223.19v-4.81s-.29-2.8,1.43-2.8,1.33,2.91,1.33,2.91l-.77,4.7h-2Z"/>
    <path class="cls-14" d="m571.57,223.19l.08-4.81s.32-2.8-1.6-2.8-1.39,2.91-1.39,2.91l.78,4.7h2.13Z"/>
  </g>
  <g>
    <path class="cls-12" d="m567.77,248.05c-.48,1.63-.89,3.01-.89,6.28,0,.79.18,1.99.89,2.36.58.3,1.31.12,1.79,0,1.37-.34,2.23-1.13,2.68-1.57,2.35-2.28,3.58-4.71,3.58-6.28,0-1.76-.88-2.5-2.68-3.14-2.9-1.04-4.86.64-5.37,2.36Z"/>
    <path class="cls-12" d="m571.31,246.35s.86-3.33,1.79-3.17,1.83,4.09.04,4.09-1.83-.91-1.83-.91Z"/>
    <path class="cls-12" d="m572.25,246.48s2.01-2.68,3.69-2.52-1.68,4.7-1.79,4-1.9-1.48-1.9-1.48Z"/>
  </g>
  <g>
    <path class="cls-14" d="m571.79,275.49c-2.47,0-4.59,1.7-4.73,4.33-.14,2.72,2.26,5,4.87,4.84,2.38-.15,4.42-2.31,4.29-4.84-.12-2.31-2.23-4.32-4.43-4.33Z"/>
    <path class="cls-14" d="m571.86,277.84v-4.81s-.29-2.8,1.43-2.8,1.33,2.91,1.33,2.91l-.77,4.7h-2Z"/>
    <path class="cls-14" d="m571.57,277.84l.08-4.81s.32-2.8-1.6-2.8-1.39,2.91-1.39,2.91l.78,4.7h2.13Z"/>
  </g>
  <g>
    <path class="cls-12" d="m567.77,303.69c-.48,1.63-.89,3.01-.89,6.28,0,.79.18,1.99.89,2.36.58.3,1.31.12,1.79,0,1.37-.34,2.23-1.13,2.68-1.57,2.35-2.28,3.58-4.71,3.58-6.28,0-1.76-.88-2.5-2.68-3.14-2.9-1.04-4.86.64-5.37,2.36Z"/>
    <path class="cls-12" d="m571.31,301.99s.86-3.33,1.79-3.17,1.83,4.09.04,4.09-1.83-.91-1.83-.91Z"/>
    <path class="cls-12" d="m572.25,302.12s2.01-2.68,3.69-2.52-1.68,4.7-1.79,4-1.9-1.48-1.9-1.48Z"/>
  </g>
  <g>
    <path class="cls-14" d="m571.79,331.2c-2.47,0-4.59,1.7-4.73,4.33-.14,2.72,2.26,5,4.87,4.84,2.38-.15,4.42-2.31,4.29-4.84-.12-2.31-2.23-4.32-4.43-4.33Z"/>
    <path class="cls-14" d="m571.86,333.55v-4.81s-.29-2.8,1.43-2.8,1.33,2.91,1.33,2.91l-.77,4.7h-2Z"/>
    <path class="cls-14" d="m571.57,333.55l.08-4.81s.32-2.8-1.6-2.8-1.39,2.91-1.39,2.91l.78,4.7h2.13Z"/>
  </g>
  <g>
    <path class="cls-14" d="m466.07,37.01c-2.47,0-4.59,1.7-4.73,4.33-.14,2.72,2.26,5,4.87,4.84,2.38-.15,4.42-2.31,4.29-4.84-.12-2.31-2.23-4.32-4.43-4.33Z"/>
    <path class="cls-14" d="m466.14,39.36v-4.81s-.29-2.8,1.43-2.8,1.33,2.91,1.33,2.91l-.77,4.7h-2Z"/>
    <path class="cls-14" d="m465.85,39.36l.08-4.81s.32-2.8-1.6-2.8-1.39,2.91-1.39,2.91l.78,4.7h2.13Z"/>
  </g>
  <g>
    <path class="cls-12" d="m435.06,37.13c-.48,1.63-.89,3.01-.89,6.28,0,.79.18,1.99.89,2.36.58.3,1.31.12,1.79,0,1.37-.34,2.23-1.13,2.68-1.57,2.35-2.28,3.58-4.71,3.58-6.28,0-1.76-.88-2.5-2.68-3.14-2.9-1.04-4.86.64-5.37,2.36Z"/>
    <path class="cls-12" d="m438.6,35.43s.86-3.33,1.79-3.17,1.83,4.09.04,4.09-1.83-.91-1.83-.91Z"/>
    <path class="cls-12" d="m439.54,35.56s2.01-2.68,3.69-2.52-1.68,4.7-1.79,4-1.9-1.48-1.9-1.48Z"/>
  </g>
  <g>
    <path class="cls-14" d="m411.01,37.13c-2.47,0-4.59,1.7-4.73,4.33-.14,2.72,2.26,5,4.87,4.84,2.38-.15,4.42-2.31,4.29-4.84-.12-2.31-2.23-4.32-4.43-4.33Z"/>
    <path class="cls-14" d="m411.08,39.48v-4.81s-.29-2.8,1.43-2.8,1.33,2.91,1.33,2.91l-.77,4.7h-2Z"/>
    <path class="cls-14" d="m410.79,39.48l.08-4.81s.32-2.8-1.6-2.8-1.39,2.91-1.39,2.91l.78,4.7h2.13Z"/>
  </g>
  <g>
    <path class="cls-12" d="m380.18,36.88c-.48,1.63-.89,3.01-.89,6.28,0,.79.18,1.99.89,2.36.58.3,1.31.12,1.79,0,1.37-.34,2.23-1.13,2.68-1.57,2.35-2.28,3.58-4.71,3.58-6.28,0-1.76-.88-2.5-2.68-3.14-2.9-1.04-4.86.64-5.37,2.36Z"/>
    <path class="cls-12" d="m383.73,35.18s.86-3.33,1.79-3.17,1.83,4.09.04,4.09-1.83-.91-1.83-.91Z"/>
    <path class="cls-12" d="m384.66,35.31s2.01-2.68,3.69-2.52-1.68,4.7-1.79,4-1.9-1.48-1.9-1.48Z"/>
  </g>
  <g class="cls-9">
    <g>
      <line class="cls-8" x1="279" y1="123" x2="279.5" y2="123"/>
      <line class="cls-7" x1="280.5" y1="123" x2="525" y2="123"/>
      <line class="cls-8" x1="525.5" y1="123" x2="526" y2="123"/>
    </g>
  </g>
  <g class="cls-9">
    <g>
      <line class="cls-8" x1="279" y1="164.5" x2="279.5" y2="164.5"/>
      <line class="cls-7" x1="280.5" y1="164.5" x2="525" y2="164.5"/>
      <line class="cls-8" x1="525.5" y1="164.5" x2="526" y2="164.5"/>
    </g>
  </g>
  <g class="cls-9">
    <g>
      <line class="cls-8" x1="279" y1="205.5" x2="279.5" y2="205.5"/>
      <line class="cls-7" x1="280.5" y1="205.5" x2="525" y2="205.5"/>
      <line class="cls-8" x1="525.5" y1="205.5" x2="526" y2="205.5"/>
    </g>
  </g>
  <g class="cls-9">
    <g>
      <line class="cls-8" x1="279" y1="247.5" x2="279.5" y2="247.5"/>
      <line class="cls-7" x1="280.5" y1="247.5" x2="525" y2="247.5"/>
      <line class="cls-8" x1="525.5" y1="247.5" x2="526" y2="247.5"/>
    </g>
  </g>
  <g class="cls-9">
    <g>
      <line class="cls-8" x1="279" y1="288.5" x2="279.5" y2="288.5"/>
      <line class="cls-7" x1="280.5" y1="288.5" x2="525" y2="288.5"/>
      <line class="cls-8" x1="525.5" y1="288.5" x2="526" y2="288.5"/>
    </g>
  </g>
</svg>