<svg xmlns="http://www.w3.org/2000/svg" viewBox="0 0 274.65 112.9"><defs><style>.cls-1{fill:#f39221;stroke-width:0.5px;}.cls-1,.cls-2{stroke:#010101;stroke-miterlimit:10;}.cls-2,.cls-3{fill:#010101;}.cls-2{stroke-width:0.25px;}</style></defs><g id="Layer_2" data-name="Layer 2"><g id="Layer_1-2" data-name="Layer 1"><ellipse class="cls-1" cx="137.32" cy="56.45" rx="137.07" ry="56.2"/><path class="cls-2" d="M41,54.47H52.14a4.6,4.6,0,0,0,4.6-4.59v-12h3.42v12a4.6,4.6,0,0,0,4.6,4.59H75.93v3.42H64.76a4.6,4.6,0,0,0-4.6,4.6V74.78H56.74V62.49a4.6,4.6,0,0,0-4.6-4.6H41Z"/><path class="cls-3" d="M83.51,55.86C83.51,49,84.66,46.49,87,43a11.16,11.16,0,0,1,9.9-5.24q7,0,10.19,5.15c2.15,3.44,3.22,5.93,3.22,13s-1.16,9.37-3.48,12.86S101.05,74,96.52,74a11.89,11.89,0,0,1-6-1.41,10.85,10.85,0,0,1-4-4.09,20.28,20.28,0,0,1-2.28-6.53A22.09,22.09,0,0,1,83.51,55.86Zm5.53.06a24.49,24.49,0,0,0,.4,4.77,25.87,25.87,0,0,0,1.3,5.83A9.46,9.46,0,0,0,93,70.28a4.83,4.83,0,0,0,3.43,1.32q4.55,0,6.42-4.48c1.24-3,1.87-4.89,1.87-11.2a28.68,28.68,0,0,0-.35-4.78,23,23,0,0,0-1.26-5.8,9.2,9.2,0,0,0-2.45-3.73,5.64,5.64,0,0,0-3.83-1.32c-2.88,0-4.9,1.49-6.07,4.45S89,49.6,89,55.92Z"/><path class="cls-3" d="M123.19,39.06c1.5-.34,3-.63,4.38-.86H129V70.45l1.08,1.38v1.44h-7.32V71.83l1.06-1.38V42.23l-1.64-.46"/><path class="cls-3" d="M134.79,57.36V55.57L151.47,39.3l4.18,2.53-8.91,8.7-5,5,2.15,1.79,13.57,11.43-3.36,4Z"/><path class="cls-3" d="M170.05,39.51c1.5-.35,3-.63,4.38-.86h1.44V70.89L177,72.28v1.44h-7.32V72.28l1.06-1.39V42.68l-1.64-.47"/><path class="cls-3" d="M181.65,57.8V56l16.68-16.27,4.18,2.53L193.6,51,188.65,56l4.89,4.52,10.82,8.69-3.35,4Z"/><path class="cls-3" d="M218.89,39.54c1.5-.34,3-.63,4.38-.86h1.44V70.93l1.08,1.38v1.44h-7.33V72.31l1.06-1.38V42.71l-1.63-.46"/></g></g></svg>