<?xml version="1.0" encoding="UTF-8"?>
<svg id="_레이어_2" data-name="레이어 2" xmlns="http://www.w3.org/2000/svg" viewBox="0 0 311.26 134">
  <defs>
    <style>
      .cls-1 {
        fill: none;
        stroke: #000;
        stroke-miterlimit: 10;
      }

      .cls-2, .cls-3, .cls-4 {
        stroke-width: 0px;
      }

      .cls-3 {
        fill: #fff8e0;
      }

      .cls-4 {
        fill: #ffbc8b;
      }
    </style>
  </defs>
  <g id="_레이어_1-2" data-name="레이어 1">
    <rect class="cls-3" y="0" width="311.26" height="134" rx="63.5" ry="63.5"/>
    <g>
      <path class="cls-2" d="m97.86,56.07c-.75.13-1.19.44-1.32.93-.13.49-.05,1.56.23,3.21.43,2.5.92,4.42,1.48,5.77.17.38.37.66.6.84.23.18.65.38,1.26.6,1.29.45,2.03,1.2,2.22,2.26.22,1.3-.44,2.36-1.99,3.19-1.55.82-4.29,1.58-8.2,2.25-7.29,1.26-11.17.51-11.64-2.25-.08-.47-.04-.87.13-1.19s.59-.81,1.27-1.45c.77-.72,1.24-1.5,1.41-2.33.17-.83.15-2.21-.06-4.14-.14-1.41-.96-6.43-2.44-15.06-.47-2.74-.93-4.57-1.38-5.51-.45-.94-1.16-1.55-2.14-1.85-.94-.26-1.58-.54-1.94-.84-.35-.29-.58-.72-.67-1.27-.13-.73.05-1.41.51-2.05.47-.64,1.18-1.17,2.14-1.6.81-.36,1.95-.67,3.43-.93.65-.11,2.29-.29,4.92-.55.5-.05,1.28-.16,2.34-.34,1.77-.31,4.11-.83,7.03-1.58,1.85-.46,3.14-.76,3.89-.88,4.21-.73,7.87-.31,10.98,1.24,2.8,1.4,4.48,3.73,5.04,6.98.31,1.81.16,3.54-.45,5.17-.61,1.64-1.61,2.96-3,3.97-.58.42-.83.85-.75,1.29.1.57.66.95,1.69,1.14,2.2.39,3.91,1.26,5.13,2.61,1.23,1.35,2.32,3.55,3.27,6.61.4,1.27.8,2.07,1.2,2.39.4.33,1.24.56,2.52.71.39.05.75.25,1.08.59.32.34.52.75.61,1.22.11.61-.02,1.27-.39,1.97-.37.7-.89,1.29-1.58,1.78-1.52,1.05-3.72,1.83-6.59,2.32-3.84.66-6.76.12-8.76-1.62-.9-.78-1.74-1.81-2.5-3.1-.76-1.29-1.75-3.33-2.96-6.12-.78-1.79-1.58-3.01-2.41-3.66-.83-.65-1.9-.89-3.21-.72Zm-4.31-14.77l.86,6.94.05.27c.12.71.31,1.16.55,1.36.25.2.69.25,1.32.14,1.73-.3,2.92-.96,3.55-2,.63-1.03.78-2.53.44-4.5-.66-3.8-2.33-5.47-5.03-5-.77.13-1.28.4-1.53.81-.25.41-.32,1.07-.21,1.98Z"/>
      <path class="cls-2" d="m126.91,38.49h11.79c2.38,0,4.12-.05,5.22-.15,1.09-.1,2.16-.3,3.2-.6.32-.09.57-.14.76-.14.79,0,1.5.42,2.11,1.26,1.01,1.37,1.51,3.03,1.51,4.97,0,.98-.21,1.75-.63,2.31-.42.56-1,.85-1.73.85-.5,0-.9-.1-1.18-.3-.28-.2-.66-.66-1.14-1.37-.67-1.01-1.52-1.68-2.56-2.02-1.03-.34-2.73-.51-5.08-.51-1.76,0-2.83.31-3.21.93-.2.33-.32.78-.36,1.33-.04.56-.06,1.98-.06,4.27,0,.9.15,1.46.46,1.68.31.22,1.11.33,2.41.33.64,0,1.11-.13,1.4-.4.29-.26.47-.73.55-1.41.11-.87.22-1.47.33-1.8.11-.32.32-.61.63-.85.32-.27.7-.41,1.12-.41.63,0,1.16.29,1.61.88.32.44.59,1.21.81,2.31.22,1.11.33,2.26.33,3.47,0,2.38-.37,4.33-1.12,5.85-.41.83-1.04,1.24-1.88,1.24-.52,0-.88-.13-1.08-.4-.2-.26-.35-.81-.46-1.64-.23-1.7-1.24-2.55-3.03-2.55-.69,0-1.16.21-1.41.64s-.38,1.22-.38,2.38c0,.71.05,1.62.15,2.74.1,1.12.2,1.86.31,2.22.12.45.5.76,1.14.94.63.17,1.69.26,3.18.26s4.06-.09,5.86-.16c1.74-.07,3.89-.08,4.93-1.46.79-1.05.53-.73.96-1.61.43-.87,1.66-2.7,2-3,.34-.3,1.23,0,1.78,0,.64,0,1.17.28,1.59.82.42.55.63,1.24.63,2.07,0,.9-5.24,2.03-5.71,3.39-.47,1.36-1.05,2.56-1.74,3.61-.35.51-.64-.15-.87.03-.23.17.48.26.13.26-.29,0-.71-.05-1.26-.14-1.64-.3-2.16,1-4.92.66h-19.45c-.78,0-1.38-.17-1.81-.51-.43-.34-.64-.82-.64-1.43,0-.44.09-.75.28-.95s.6-.44,1.26-.75c.46-.2.8-.44,1.02-.72.22-.29.39-.71.52-1.26.5-2.27.76-5.34.76-9.19,0-5.81-.37-9.48-1.1-11-.15-.3-.32-.51-.5-.63-.18-.12-.57-.26-1.15-.43-.87-.26-1.31-.83-1.31-1.72,0-.48.14-.91.44-1.29.29-.38.67-.62,1.15-.75.6-.14,1.75-.2,3.46-.2Z"/>
      <path class="cls-2" d="m176.56,53.7l4.09,9.05c.39.83.71,1.38.97,1.64.26.26.66.44,1.19.53,1.04.16,1.56.71,1.56,1.63,0,1.09-.63,1.87-1.9,2.35-1.27.48-2.01.72-2.23.72-3.26,0-9.67-.14-11.25-.42-.72-.13-1.29-.41-1.72-.82-.43-.41-.64-.91-.64-1.49,0-.45.11-.79.34-1.04s.64-.47,1.24-.68c.68-.24,1.02-.64,1.02-1.21,0-1-.58-1.59-1.75-1.77-1.25-.18-3.02-.27-5.3-.27-1.92,0-3.06.12-3.44.36-.23.15-.43.42-.61.8-.17.39-.26.76-.26,1.12,0,.33.06.54.18.64.12.1.52.26,1.2.48.88.27,1.32.8,1.32,1.61,0,1.77-2.06,2.66-6.16,2.66-2.16,0-8.07-.13-8.93-.14-.03,0-.04-.04-.01-.06.44-.26,2.28-1.42,2.28-2.35,0-.46.11-.82.34-1.07.22-.25.62-.48,1.2-.69.94-.34,1.65-.82,2.13-1.44.48-.62,1.17-1.94,2.07-3.97l3.05-6.91c1.12-2.53,1.88-4.43,2.26-5.69.38-1.26.58-2.49.59-3.7.02-1.28.09-2.17.23-2.67.14-.5.44-.99.92-1.46,1-1.04,2.26-1.56,3.81-1.56,1.46,0,2.85.59,4.18,1.77,1.85,1.61,4.53,6.3,8.05,14.06Zm-15.06,2.82h4.24c.78,0,1.17-.18,1.17-.54,0-.49-.54-1.7-1.62-3.62-.49-.88-.86-1.47-1.12-1.77-.26-.3-.53-.45-.82-.45-.52,0-.95.5-1.3,1.5-.06.13-.27.66-.63,1.59-.61,1.52-.91,2.43-.91,2.73,0,.37.33.56,1,.56Z"/>
      <path class="cls-2" d="m197.09,48.17l.15,10.66c.03,2.4.29,3.95.76,4.64.58.81,1.79,1.21,3.61,1.18,1.97-.03,3.51-.44,4.64-1.23,1.13-.79,1.9-2.01,2.33-3.66.25-1.01.82-1.52,1.74-1.54.92-.01,1.67.34,2.26,1.07.59.73.89,1.68.91,2.86.03,1.92-.74,3.98-2.29,6.19-.49.7-.92,1.19-1.3,1.45-.38.26-.83.4-1.37.4l-5.75-.55-18.09.26c-1.19.02-5.42-.09-5.91-.33-.71-.35,2.32-.88,2.31-1.59,0-.43.11-.76.34-.97.52-.48,1-.51,1.68-.92.59-.35.88-.83,1.27-1.48.75-1.26.81-2.52.88-4,0-.15,0-.5,0-1.15,0-.21,0-.45-.01-.72-.02-1.03-.06-2.54-.14-4.47-.02-.46-.04-.88-.08-1.68-.12-2.57-.2-4.51-.24-5.81-.02-1.24-.14-2.09-.36-2.54-.22-.45-.68-.78-1.37-.97-1.14-.34-1.87-.62-2.19-.83-.56-.38-.84-.82-.85-1.31-.02-1.13,1.02-2,3.1-2.62,1.77-.54,4.15-.83,7.13-.87,3.35-.05,5.85.07,7.51.36,2.14.39,3.23,1.21,3.24,2.46,0,.51-.13.89-.41,1.14-.28.25-.97.59-2.07,1.03-.65.27-1.06.73-1.22,1.36-.16.64-.23,2.03-.2,4.16Z"/>
      <path class="cls-2" d="m116.55,79.97l-.45-1.09c-.28-.63-.63-1.05-1.04-1.26-.75-.39-1.12-.89-1.12-1.49,0-1.33,1.99-1.99,5.97-1.99,1.99,0,3.51.16,4.54.48.35.11.64.3.85.54.21.25.32.52.32.82,0,.26-.05.46-.15.59-.1.13-.37.4-.82.79-.26.22-.39.45-.39.68,0,.36.2.96.59,1.8l.89,1.9c.4.86.69,1.41.86,1.64.17.23.37.35.58.35.24,0,.44-.13.61-.4.17-.27.39-.8.66-1.59l.75-2.18c.21-.62.31-1.09.31-1.4,0-.41-.22-.69-.65-.82-.87-.28-1.31-.78-1.31-1.49,0-.62.34-1.07,1.01-1.34.67-.27,1.78-.4,3.33-.4,1.01,0,1.79.11,2.35.34.78.31,1.17.81,1.17,1.49,0,.3-.07.56-.21.78-.14.22-.42.51-.85.87-.28.24-.5.49-.65.76-.15.27-.38.82-.69,1.67l-2.72,7.23c-1.36,3.37-2.18,5.38-2.46,6.02-.28.64-.57,1.22-.87,1.73-.23.37-.48.64-.76.79-.28.15-.65.23-1.12.23-.62,0-1.12-.13-1.5-.4-.38-.27-.7-.72-.96-1.34l-3.08-7.31c-.17-.4-.29-.66-.37-.76-.08-.1-.2-.16-.34-.16-.22,0-.4.13-.56.39-.16.26-.45.93-.89,2.01l-2.12,5.26c-.39.95-.77,1.58-1.13,1.89-.36.31-.9.46-1.63.46-.65,0-1.17-.16-1.55-.47-.38-.31-.72-.86-1.03-1.65l-5.73-14.64c-.24-.6-.4-.96-.49-1.07-.09-.11-.37-.29-.83-.54-.53-.27-.79-.73-.79-1.37,0-1.46,1.81-2.19,5.45-2.19,1.86,0,3.2.13,4.03.39.8.26,1.2.77,1.2,1.54,0,.24-.02.41-.06.52s-.19.35-.45.72c-.12.2-.19.44-.19.73,0,.52.35,1.6,1.04,3.24l.64,1.49c.27.62.45,1,.54,1.13.09.13.22.19.38.19.4,0,.82-.58,1.24-1.73l.64-1.77c.05-.12.08-.22.08-.3,0-.08-.03-.19-.08-.33Z"/>
      <path class="cls-2" d="m148.19,74.01c2.67,0,4.99.76,6.99,2.29,1.35,1.05,2.44,2.41,3.28,4.08.82,1.66,1.23,3.32,1.23,4.98,0,2.45-.81,4.64-2.43,6.57-1.37,1.64-3.16,2.82-5.37,3.53-1.36.44-2.72.65-4.09.65-1.79,0-3.51-.37-5.15-1.12-1.98-.9-3.53-2.27-4.65-4.09-1.09-1.76-1.63-3.71-1.63-5.83,0-2.47.7-4.65,2.1-6.53,1.24-1.68,2.92-2.91,5.03-3.7,1.41-.54,2.98-.81,4.7-.81Zm-1.48,4.46c-.87,0-1.56.39-2.07,1.17-.39.58-.59,1.27-.59,2.07,0,1.17.24,2.53.72,4.07.48,1.54,1.08,2.91,1.8,4.1.32.51.72.91,1.19,1.21.47.3.95.45,1.44.45.79,0,1.42-.3,1.91-.89.48-.59.72-1.37.72-2.33,0-1.25-.2-2.61-.61-4.06-.4-1.45-.93-2.69-1.57-3.72-.39-.63-.85-1.13-1.37-1.49-.52-.36-1.04-.55-1.57-.58Z"/>
      <path class="cls-2" d="m172.45,86.75c-.39,0-.65.12-.75.36-.11.24-.16.79-.16,1.66,0,1.32.08,2.34.25,3.08.05.21.13.37.23.48.1.11.3.25.59.42.62.34.93.79.93,1.35,0,.68-.43,1.17-1.3,1.45s-2.33.43-4.4.43c-3.84,0-5.76-.73-5.76-2.18,0-.25.06-.45.17-.6.11-.15.37-.36.78-.63.46-.3.76-.66.93-1.07.16-.41.27-1.12.33-2.12.05-.74.08-3.38.08-7.92,0-1.44-.07-2.42-.22-2.94-.15-.52-.46-.9-.93-1.14-.46-.22-.76-.42-.92-.6-.16-.18-.23-.42-.23-.71,0-.38.15-.72.44-1,.3-.29.71-.5,1.24-.63.45-.11,1.06-.17,1.84-.17.34,0,1.2.05,2.57.16.26.02.67.03,1.23.03.93,0,2.18-.06,3.73-.19.99-.07,1.67-.11,2.07-.11,2.22,0,4.06.53,5.51,1.6,1.31.96,1.96,2.3,1.96,4.01,0,.95-.23,1.82-.68,2.61s-1.08,1.37-1.88,1.77c-.33.17-.5.36-.5.59,0,.3.25.54.76.73,1.09.39,1.89.99,2.4,1.79.51.8.87,2.02,1.09,3.67.09.68.23,1.13.4,1.33.18.2.59.4,1.23.58.2.06.36.19.5.4s.2.43.2.68c0,.32-.12.65-.37.97-.25.33-.57.58-.96.77-.87.4-2.06.61-3.58.61-2.02,0-3.47-.53-4.34-1.6-.39-.48-.73-1.08-1-1.81-.28-.73-.6-1.86-.97-3.39-.24-.99-.54-1.68-.91-2.08-.37-.4-.89-.62-1.58-.65Zm-.9-7.94l-.17,3.63v.14c0,.37.05.62.16.75.11.12.33.19.66.19.91,0,1.58-.24,1.99-.71.42-.47.62-1.23.62-2.26,0-2-.71-3-2.13-3-.4,0-.69.09-.86.28-.17.19-.26.52-.28,1Z"/>
      <path class="cls-2" d="m198.37,81.17v7.14c0,1.61.14,2.65.42,3.11.34.55,1.06.82,2.16.82,1.18,0,2.12-.26,2.8-.78.68-.52,1.16-1.33,1.43-2.43.16-.67.51-1.01,1.06-1.01s1,.25,1.35.74.52,1.13.52,1.92c0,1.29-.48,2.66-1.43,4.12-.3.47-.56.79-.79.96-.23.17-.5.26-.82.26l-3.45-.42h-10.88c-.71,0-1.22-.08-1.51-.25-.42-.24-.64-.6-.64-1.07,0-.29.07-.51.21-.65s.48-.34,1.02-.6c.59-.28.97-.67,1.14-1.18.13-.43.2-1.67.2-3.72,0-.95-.03-2.33-.08-4.12-.05-1.72-.08-3.02-.09-3.89,0-.83-.07-1.4-.2-1.7-.13-.31-.4-.53-.82-.66-.68-.24-1.12-.43-1.31-.58-.33-.26-.5-.55-.5-.89,0-.76.63-1.33,1.88-1.73,1.07-.34,2.5-.51,4.29-.51,2.01,0,3.52.1,4.51.31,1.29.28,1.93.84,1.93,1.68,0,.34-.08.6-.26.76-.17.17-.59.39-1.25.67-.39.18-.64.48-.75.9s-.16,1.35-.16,2.78Z"/>
      <path class="cls-2" d="m216.58,95.68h-1.12c-.65,0-1.38.03-2.19.09-.51.04-.86.06-1.06.06-.7,0-1.26-.16-1.7-.48-.44-.32-.65-.74-.65-1.26,0-.36.1-.65.29-.85.19-.2.51-.37.94-.49.41-.1.69-.27.84-.51s.26-.69.34-1.36c.08-.78.16-2.29.23-4.54.07-2.25.1-4.49.1-6.71,0-.87-.07-1.45-.2-1.74-.13-.29-.45-.52-.95-.7-.72-.27-1.07-.73-1.07-1.38,0-.51.25-.9.74-1.19.49-.29,1.18-.43,2.06-.43.29,0,.63,0,1.03.02.87.03,1.5.05,1.9.05,1.48,0,3.16-.05,5.03-.14.39-.02.89-.03,1.48-.03,2.38,0,4.25.27,5.63.81,2.05.81,3.6,2.17,4.64,4.08.92,1.68,1.38,3.68,1.38,6.01,0,1.17-.17,2.35-.51,3.52-.34,1.18-.8,2.2-1.38,3.06-1.2,1.74-2.86,2.97-4.98,3.67-1.25.42-2.57.62-3.98.62l-1.88-.06-1.62-.05c-1.25-.04-2.36-.06-3.31-.06Zm3.27-16.87v12.04c0,.65.14,1.12.42,1.39.28.27.75.41,1.4.41,3.03,0,4.54-2.3,4.54-6.91,0-2.54-.35-4.51-1.06-5.91-.78-1.55-2.09-2.32-3.95-2.32-.5,0-.85.1-1.05.3-.2.2-.3.53-.3,1Z"/>
      <polygon class="cls-2" points="141.37 69.32 145.48 69.45 144.05 68.4 141.37 69.32"/>
      <polygon class="cls-2" points="176.29 69.57 180.57 69.79 178.67 67.95 176.29 69.57"/>
      <path class="cls-2" d="m183.37,64.61c-2,0-2.72-1.86-2.72-1.86v2.78l4.72,1.09-.16-8.55s.16,6.55-1.84,6.55Z"/>
    </g>
    <rect class="cls-1" x="19.02" y="15.33" width="274.37" height="104.47" rx="49.51" ry="49.51"/>
    <g>
      <path class="cls-4" d="m256.71,76.71s-10.55,18.58-5.94,21.79c4.61,3.21,19.48-12.35,19.48-12.35,0,0,2.13-4.73-3.63-8.75-5.76-4.02-9.9-.69-9.9-.69Z"/>
      <path class="cls-4" d="m264.02,82.19s-.52-13.65,3.13-13.82c3.65-.17-3.13,13.82-3.13,13.82Z"/>
      <path class="cls-4" d="m263.34,80.61s6.02-12.37,9.35-10.91-9.35,10.91-9.35,10.91Z"/>
      <path class="cls-4" d="m262.84,79.72s11.26-8.29,13.52-5.52c2.26,2.77-13.52,5.52-13.52,5.52Z"/>
    </g>
    <g>
      <path class="cls-4" d="m43.16,78.07s24.34,19.33,30.68,13.52c6.34-5.81-12.07-30.59-12.07-30.59,0,0-6.38-4.13-14.3,3.13-7.92,7.26-4.31,13.93-4.31,13.93Z"/>
      <path class="cls-4" d="m53.79,68.94s-20.62-2.44-19.67-7.67c.95-5.24,19.67,7.67,19.67,7.67Z"/>
      <path class="cls-4" d="m51.19,69.54s-16.53-11.44-13.25-15.84c3.28-4.4,13.25,15.84,13.25,15.84Z"/>
      <path class="cls-4" d="m49.7,70.04s-8.7-17.96-3.8-20.52c4.9-2.56,3.8,20.52,3.8,20.52Z"/>
    </g>
    <g>
      <path class="cls-4" d="m239.34,59.83s12.34,14.65,16.5,11.95c4.16-2.69-4.28-19.87-4.28-19.87,0,0-3.32-3.28-8.52.09-5.2,3.37-3.7,7.82-3.7,7.82Z"/>
      <path class="cls-4" d="m246.27,55.69s-11.67-4.04-10.67-7.07,10.67,7.07,10.67,7.07Z"/>
      <path class="cls-4" d="m244.72,55.72s-8.53-8.94-6.25-11.17c2.28-2.23,6.25,11.17,6.25,11.17Z"/>
      <path class="cls-4" d="m243.82,55.84s-3.44-11.87-.39-12.79c3.05-.93.39,12.79.39,12.79Z"/>
    </g>
  </g>
</svg>