<svg xmlns="http://www.w3.org/2000/svg" viewBox="0 0 842.86 531"><defs><style>.cls-1{fill:#ffe7e0;}.cls-2{fill:#ff940a;}.cls-12,.cls-13,.cls-2,.cls-3,.cls-4{stroke:#000;stroke-miterlimit:10;}.cls-12,.cls-13,.cls-2{stroke-width:0.5px;}.cls-3{stroke-width:0.25px;}.cls-4{font-size:17.14px;stroke-width:0.1px;font-family:GangwonEduPowerExtraBold, GangwonEduPower;}.cls-5{letter-spacing:0.05em;}.cls-6{letter-spacing:0.05em;}.cls-7{letter-spacing:0.04em;}.cls-8{letter-spacing:0.02em;}.cls-9{fill:#4a3a00;}.cls-10{fill:#ffb4c9;}.cls-11{opacity:0.5;}.cls-12,.cls-13{fill:none;}.cls-13{stroke-dasharray:1 1;}</style></defs><g id="Layer_2" data-name="Layer 2"><g id="레이어_1" data-name="레이어 1"><rect class="cls-1" x="0.5" y="0.5" width="841.86" height="530"/><path d="M841.86,1V530H1V1H841.86m1-1H0V531H842.86V0Z"/><ellipse class="cls-2" cx="420.64" cy="56.03" rx="85.72" ry="35.14"/><path class="cls-3" d="M360.38,54.79h7a2.87,2.87,0,0,0,2.87-2.87V44.43h2.14v7.49a2.88,2.88,0,0,0,2.88,2.87h7v2.14h-7a2.88,2.88,0,0,0-2.88,2.87v7.69h-2.14V59.8a2.87,2.87,0,0,0-2.87-2.87h-7Z"/><path d="M387,55.66c0-4.32.72-5.86,2.16-8a7.7,7.7,0,0,1,12.56,0c1.35,2.15,2,3.7,2,8.1s-.73,5.86-2.18,8A7.22,7.22,0,0,1,395.12,67a7.42,7.42,0,0,1-3.74-.88,6.85,6.85,0,0,1-2.52-2.55,12.76,12.76,0,0,1-1.42-4.09A13.81,13.81,0,0,1,387,55.66Zm3.45,0a15.18,15.18,0,0,0,.26,3,15.35,15.35,0,0,0,.81,3.64A5.89,5.89,0,0,0,393,64.67a3,3,0,0,0,2.14.83,4.08,4.08,0,0,0,4-2.8c.78-1.87,1.17-3.06,1.17-7a18.35,18.35,0,0,0-.21-3,14.27,14.27,0,0,0-.8-3.63,5.64,5.64,0,0,0-1.53-2.33,3.51,3.51,0,0,0-2.39-.83,3.87,3.87,0,0,0-3.8,2.78C390.81,50.56,390.44,51.74,390.44,55.69Z"/><path d="M411.8,45.15c.94-.21,1.85-.39,2.74-.54h.9V64.78l.67.86v.9h-4.57v-.9l.66-.86V47.13l-1-.29"/><path d="M419.05,56.59V55.48L429.48,45.3l2.62,1.59-5.57,5.43-3.1,3.16,1.35,1.11,8.48,7.15-2.1,2.52Z"/><path d="M441.1,45.43c.94-.21,1.85-.39,2.74-.54h.9V65.06l.68.86v.9h-4.58v-.9l.66-.86V47.41l-1-.29"/><path d="M448.35,56.87V55.76l10.44-10.18,2.61,1.59-5.57,5.43-3.1,3.16,3.06,2.83L462.56,64l-2.1,2.52Z"/><path d="M471.64,45.45c.94-.21,1.85-.39,2.74-.54h.9V65.08l.68.86v.9h-4.58v-.9l.66-.86V47.43l-1-.29"/><text class="cls-4" transform="translate(391.27 166.23)"><tspan class="cls-5">Name</tspan><tspan class="cls-6"><tspan x="0" y="58.29">Date </tspan><tspan class="cls-7" x="48.58" y="58.29">o</tspan><tspan x="60.36" y="58.29">f Birth</tspan><tspan x="0" y="116.58">Living in</tspan></tspan><tspan class="cls-5"><tspan x="0" y="174.87">Hob</tspan><tspan class="cls-8" x="36.91" y="174.87">b</tspan><tspan x="48.31" y="174.87">y</tspan></tspan><tspan class="cls-6" x="0" y="233.15">Li</tspan><tspan x="15.72" y="233.15">k</tspan><tspan class="cls-6" x="26.04" y="233.15">e</tspan></text><path class="cls-9" d="M298.91,51.73a25.88,25.88,0,0,0-1.25,8.83c0,1.1.25,2.79,1.25,3.31a3.69,3.69,0,0,0,2.52,0,8.12,8.12,0,0,0,3.77-2.21c3.3-3.21,5-6.62,5-8.82,0-2.47-1.23-3.51-3.77-4.42C302.38,47,299.63,49.32,298.91,51.73Z"/><path class="cls-9" d="M303.89,49.34s1.2-4.67,2.51-4.45,2.57,5.74.05,5.74S303.89,49.34,303.89,49.34Z"/><path class="cls-9" d="M305.2,49.53S308,45.76,310.38,46s-2.37,6.6-2.52,5.62S305.2,49.53,305.2,49.53Z"/><path class="cls-10" d="M265.13,51.74a6.39,6.39,0,0,0-6.65,6.07,6.45,6.45,0,1,0,6.65-6.07Z"/><path class="cls-10" d="M265.22,55V48.28s-.4-3.93,2-3.93,1.88,4.09,1.88,4.09L268,55Z"/><path class="cls-10" d="M264.82,55l.11-6.76s.45-3.93-2.25-3.93-1.95,4.09-1.95,4.09l1.09,6.6Z"/><path class="cls-9" d="M221.82,51.39a25.82,25.82,0,0,0-1.25,8.82c0,1.1.25,2.79,1.25,3.31a3.69,3.69,0,0,0,2.52,0,8.12,8.12,0,0,0,3.77-2.21c3.3-3.2,5-6.61,5-8.82,0-2.47-1.24-3.51-3.77-4.41C225.29,46.61,222.54,49,221.82,51.39Z"/><path class="cls-9" d="M226.8,49s1.2-4.68,2.51-4.46,2.57,5.74.05,5.74S226.8,49,226.8,49Z"/><path class="cls-9" d="M228.11,49.18s2.81-3.77,5.18-3.54-2.37,6.61-2.52,5.62S228.11,49.18,228.11,49.18Z"/><path class="cls-10" d="M188,51.39a6.39,6.39,0,0,0-6.64,6.08A6.45,6.45,0,1,0,188,51.39Z"/><path class="cls-10" d="M188.13,54.69V47.93s-.4-3.92,2-3.92S192,48.09,192,48.09l-1.08,6.6Z"/><path class="cls-10" d="M187.73,54.69l.11-6.76s.45-3.92-2.25-3.92-2,4.08-2,4.08l1.09,6.6Z"/><path class="cls-9" d="M144.48,51.56a25.58,25.58,0,0,0-1.26,8.83c0,1.1.25,2.79,1.26,3.3a3.61,3.61,0,0,0,2.51,0,8.13,8.13,0,0,0,3.77-2.2c3.3-3.21,5-6.62,5-8.83,0-2.46-1.24-3.5-3.77-4.41C147.94,46.79,145.19,49.14,144.48,51.56Z"/><path class="cls-9" d="M149.45,49.17s1.2-4.68,2.51-4.45,2.57,5.74.06,5.74S149.45,49.17,149.45,49.17Z"/><path class="cls-9" d="M150.76,49.35s2.82-3.77,5.18-3.54-2.36,6.61-2.52,5.63S150.76,49.35,150.76,49.35Z"/><path class="cls-10" d="M110.69,51.56a6.39,6.39,0,0,0-6.64,6.08,6.44,6.44,0,1,0,6.64-6.08Z"/><path class="cls-10" d="M110.79,54.86V48.11s-.41-3.93,2-3.93,1.88,4.08,1.88,4.08l-1.08,6.6Z"/><path class="cls-10" d="M110.38,54.86l.11-6.75s.45-3.93-2.25-3.93-1.95,4.08-1.95,4.08l1.09,6.6Z"/><path class="cls-9" d="M67.38,51.21A25.88,25.88,0,0,0,66.13,60c0,1.1.25,2.79,1.25,3.31a3.69,3.69,0,0,0,2.52,0,8.12,8.12,0,0,0,3.77-2.21c3.3-3.21,5-6.62,5-8.83,0-2.46-1.24-3.5-3.77-4.41C70.85,46.44,68.1,48.8,67.38,51.21Z"/><path class="cls-9" d="M72.36,48.82s1.2-4.67,2.51-4.45,2.57,5.74.06,5.74S72.36,48.82,72.36,48.82Z"/><path class="cls-9" d="M73.67,49s2.82-3.78,5.18-3.54-2.36,6.6-2.52,5.62S73.67,49,73.67,49Z"/><path class="cls-10" d="M42,75.1a6.39,6.39,0,0,0-6.65,6.07A6.45,6.45,0,1,0,42,75.1Z"/><path class="cls-10" d="M42.12,78.4V71.64s-.4-3.93,2-3.93S46,71.8,46,71.8l-1.08,6.6Z"/><path class="cls-10" d="M41.72,78.4l.11-6.76s.45-3.93-2.25-3.93-1.95,4.09-1.95,4.09l1.09,6.6Z"/><path class="cls-9" d="M36.38,114.72a25.76,25.76,0,0,0-1.26,8.82c0,1.1.25,2.79,1.26,3.31a3.66,3.66,0,0,0,2.51,0,8.12,8.12,0,0,0,3.77-2.21c3.3-3.2,5-6.61,5-8.82,0-2.47-1.24-3.51-3.77-4.41C39.84,109.94,37.09,112.3,36.38,114.72Z"/><path class="cls-9" d="M41.35,112.33s1.21-4.68,2.52-4.46,2.56,5.74.05,5.74S41.35,112.33,41.35,112.33Z"/><path class="cls-9" d="M42.66,112.51s2.82-3.77,5.18-3.54-2.36,6.61-2.51,5.62S42.66,112.51,42.66,112.51Z"/><path class="cls-10" d="M42,154.77a6.39,6.39,0,0,0-6.65,6.08A6.45,6.45,0,1,0,42,154.77Z"/><path class="cls-10" d="M42.12,158.07v-6.76s-.4-3.93,2-3.93S46,151.47,46,151.47l-1.08,6.6Z"/><path class="cls-10" d="M41.72,158.07l.11-6.76s.45-3.93-2.25-3.93-1.95,4.09-1.95,4.09l1.09,6.6Z"/><path class="cls-9" d="M36.38,193a25.83,25.83,0,0,0-1.26,8.83c0,1.1.25,2.79,1.26,3.31a3.66,3.66,0,0,0,2.51,0,8.12,8.12,0,0,0,3.77-2.21c3.3-3.21,5-6.62,5-8.82,0-2.47-1.24-3.51-3.77-4.42C39.84,188.21,37.09,190.57,36.38,193Z"/><path class="cls-9" d="M41.35,190.59s1.21-4.67,2.52-4.45,2.56,5.74.05,5.74S41.35,190.59,41.35,190.59Z"/><path class="cls-9" d="M42.66,190.78s2.82-3.77,5.18-3.54-2.36,6.6-2.51,5.62S42.66,190.78,42.66,190.78Z"/><path class="cls-10" d="M40.62,233.63A6.41,6.41,0,0,0,34,239.71a6.45,6.45,0,1,0,6.64-6.08Z"/><path class="cls-10" d="M40.72,236.93v-6.75s-.4-3.93,2-3.93,1.87,4.09,1.87,4.09l-1.08,6.59Z"/><path class="cls-10" d="M40.31,236.93l.11-6.75s.45-3.93-2.25-3.93-1.94,4.09-1.94,4.09l1.09,6.59Z"/><path class="cls-9" d="M35,273.25a25.93,25.93,0,0,0-1.25,8.83c0,1.1.25,2.79,1.25,3.31a3.69,3.69,0,0,0,2.52,0,8.12,8.12,0,0,0,3.77-2.21c3.3-3.21,5-6.62,5-8.82,0-2.47-1.24-3.51-3.77-4.42C38.44,268.48,35.69,270.84,35,273.25Z"/><path class="cls-9" d="M40,270.87s1.2-4.68,2.51-4.46,2.57,5.74,0,5.74S40,270.87,40,270.87Z"/><path class="cls-9" d="M41.26,271.05s2.81-3.77,5.18-3.54-2.37,6.61-2.52,5.62S41.26,271.05,41.26,271.05Z"/><path class="cls-10" d="M40.62,311.9A6.39,6.39,0,0,0,34,318a6.45,6.45,0,1,0,6.64-6.08Z"/><path class="cls-10" d="M40.72,315.2v-6.75s-.4-3.93,2-3.93,1.87,4.08,1.87,4.08l-1.08,6.6Z"/><path class="cls-10" d="M40.31,315.2l.11-6.75s.45-3.93-2.25-3.93-1.94,4.08-1.94,4.08l1.09,6.6Z"/><path class="cls-9" d="M35,350.12a25.82,25.82,0,0,0-1.25,8.82c0,1.11.25,2.79,1.25,3.31a3.69,3.69,0,0,0,2.52,0,8.21,8.21,0,0,0,3.77-2.2c3.3-3.21,5-6.62,5-8.83,0-2.47-1.24-3.51-3.77-4.41C38.44,345.34,35.69,347.7,35,350.12Z"/><path class="cls-9" d="M40,347.73s1.2-4.68,2.51-4.46S45,349,42.51,349,40,347.73,40,347.73Z"/><path class="cls-9" d="M41.26,347.91s2.81-3.77,5.18-3.54S44.07,351,43.92,350,41.26,347.91,41.26,347.91Z"/><path class="cls-10" d="M40.62,388.66A6.39,6.39,0,0,0,34,394.74a6.45,6.45,0,1,0,6.64-6.08Z"/><path class="cls-10" d="M40.72,392V385.2s-.4-3.92,2-3.92,1.87,4.08,1.87,4.08L43.52,392Z"/><path class="cls-10" d="M40.31,392l.11-6.76s.45-3.92-2.25-3.92-1.94,4.08-1.94,4.08l1.09,6.6Z"/><path class="cls-9" d="M35,428.28a25.88,25.88,0,0,0-1.25,8.83c0,1.1.25,2.79,1.25,3.31a3.75,3.75,0,0,0,2.52,0,8.21,8.21,0,0,0,3.77-2.21c3.3-3.21,5-6.62,5-8.83,0-2.46-1.24-3.5-3.77-4.41C38.44,423.51,35.69,425.86,35,428.28Z"/><path class="cls-9" d="M40,425.89s1.2-4.67,2.51-4.45,2.57,5.74,0,5.74S40,425.89,40,425.89Z"/><path class="cls-9" d="M41.26,426.07s2.81-3.77,5.18-3.54-2.37,6.61-2.52,5.63S41.26,426.07,41.26,426.07Z"/><path class="cls-10" d="M40.62,466.93A6.39,6.39,0,0,0,34,473a6.45,6.45,0,1,0,6.64-6.08Z"/><path class="cls-10" d="M40.72,470.23v-6.76s-.4-3.93,2-3.93,1.87,4.09,1.87,4.09l-1.08,6.6Z"/><path class="cls-10" d="M40.31,470.23l.11-6.76s.45-3.93-2.25-3.93-1.94,4.09-1.94,4.09l1.09,6.6Z"/><path class="cls-9" d="M298.24,487.54a25.76,25.76,0,0,0-1.26,8.82c0,1.11.25,2.79,1.26,3.31a3.66,3.66,0,0,0,2.51,0,8.13,8.13,0,0,0,3.77-2.2c3.3-3.21,5-6.62,5-8.83,0-2.47-1.24-3.5-3.77-4.41C301.7,482.77,299,485.12,298.24,487.54Z"/><path class="cls-9" d="M303.21,485.15s1.21-4.68,2.51-4.45,2.57,5.73.06,5.73S303.21,485.15,303.21,485.15Z"/><path class="cls-9" d="M304.52,485.33s2.82-3.77,5.18-3.54-2.36,6.61-2.51,5.63S304.52,485.33,304.52,485.33Z"/><path class="cls-10" d="M264.45,487.54a6.39,6.39,0,0,0-6.64,6.08,6.44,6.44,0,1,0,6.64-6.08Z"/><path class="cls-10" d="M264.55,490.84v-6.75s-.4-3.93,2-3.93,1.87,4.08,1.87,4.08l-1.08,6.6Z"/><path class="cls-10" d="M264.14,490.84l.11-6.75s.45-3.93-2.25-3.93-1.95,4.08-1.95,4.08l1.1,6.6Z"/><path class="cls-9" d="M221.15,487.19a25.83,25.83,0,0,0-1.26,8.83c0,1.1.25,2.79,1.26,3.31a3.72,3.72,0,0,0,2.51,0,8.21,8.21,0,0,0,3.77-2.21c3.3-3.21,5-6.62,5-8.83,0-2.46-1.24-3.5-3.77-4.41C224.61,482.42,221.86,484.77,221.15,487.19Z"/><path class="cls-9" d="M226.12,484.8s1.2-4.67,2.51-4.45,2.57,5.74.06,5.74S226.12,484.8,226.12,484.8Z"/><path class="cls-9" d="M227.43,485s2.82-3.77,5.18-3.54-2.36,6.61-2.51,5.63S227.43,485,227.43,485Z"/><path class="cls-10" d="M187.36,487.19a6.39,6.39,0,0,0-6.64,6.08,6.44,6.44,0,1,0,6.64-6.08Z"/><path class="cls-10" d="M187.46,490.49v-6.75s-.41-3.93,2-3.93,1.87,4.08,1.87,4.08l-1.08,6.6Z"/><path class="cls-10" d="M187.05,490.49l.11-6.75s.45-3.93-2.25-3.93-1.95,4.08-1.95,4.08l1.09,6.6Z"/><path class="cls-9" d="M143.8,487.36a25.88,25.88,0,0,0-1.26,8.83c0,1.1.25,2.79,1.26,3.31a3.66,3.66,0,0,0,2.51,0,8.12,8.12,0,0,0,3.77-2.21c3.3-3.21,5-6.62,5-8.82,0-2.47-1.24-3.51-3.77-4.42C147.27,482.59,144.52,485,143.8,487.36Z"/><path class="cls-9" d="M148.77,485s1.21-4.68,2.52-4.46,2.56,5.74.05,5.74S148.77,485,148.77,485Z"/><path class="cls-9" d="M150.08,485.16s2.82-3.77,5.18-3.54-2.36,6.61-2.51,5.62S150.08,485.16,150.08,485.16Z"/><path class="cls-10" d="M110,487.37a6.39,6.39,0,0,0-6.64,6.08,6.45,6.45,0,1,0,6.64-6.08Z"/><path class="cls-10" d="M110.11,490.67v-6.76s-.4-3.93,2-3.93,1.87,4.09,1.87,4.09l-1.08,6.6Z"/><path class="cls-10" d="M109.7,490.67l.11-6.76s.45-3.93-2.25-3.93-1.94,4.09-1.94,4.09l1.09,6.6Z"/><path class="cls-9" d="M66.71,487a25.76,25.76,0,0,0-1.26,8.82c0,1.11.25,2.79,1.26,3.31a3.66,3.66,0,0,0,2.51,0A8.13,8.13,0,0,0,73,497c3.3-3.21,5-6.62,5-8.83,0-2.47-1.24-3.51-3.77-4.41C70.17,482.25,67.43,484.6,66.71,487Z"/><path class="cls-9" d="M71.68,484.63s1.21-4.68,2.52-4.46,2.56,5.74,0,5.74S71.68,484.63,71.68,484.63Z"/><path class="cls-9" d="M73,484.81s2.82-3.77,5.18-3.54-2.36,6.61-2.51,5.63S73,484.81,73,484.81Z"/><path class="cls-9" d="M530.55,488.66a25.81,25.81,0,0,0-1.26,8.82c0,1.11.26,2.8,1.26,3.31a3.63,3.63,0,0,0,2.52,0,8.18,8.18,0,0,0,3.77-2.2c3.29-3.21,5-6.62,5-8.83,0-2.46-1.24-3.5-3.77-4.41C534,483.89,531.27,486.24,530.55,488.66Z"/><path class="cls-9" d="M535.53,486.27s1.2-4.68,2.51-4.45,2.57,5.74.05,5.74S535.53,486.27,535.53,486.27Z"/><path class="cls-9" d="M536.84,486.45s2.81-3.77,5.17-3.54-2.36,6.61-2.51,5.63S536.84,486.45,536.84,486.45Z"/><path class="cls-10" d="M496.76,488.66a6.4,6.4,0,0,0-6.64,6.08,6.45,6.45,0,1,0,6.64-6.08Z"/><path class="cls-10" d="M496.86,492v-6.75s-.4-3.93,2-3.93,1.88,4.08,1.88,4.08l-1.08,6.6Z"/><path class="cls-10" d="M496.45,492l.12-6.75s.45-3.93-2.25-3.93-1.95,4.08-1.95,4.08l1.09,6.6Z"/><path class="cls-9" d="M453.46,488.31a25.83,25.83,0,0,0-1.26,8.83c0,1.1.25,2.79,1.26,3.31a3.72,3.72,0,0,0,2.51,0,8.12,8.12,0,0,0,3.77-2.21c3.3-3.21,5-6.62,5-8.83,0-2.46-1.24-3.5-3.77-4.41C456.93,483.54,454.18,485.9,453.46,488.31Z"/><path class="cls-9" d="M458.43,485.92s1.21-4.67,2.52-4.45,2.56,5.74.05,5.74S458.43,485.92,458.43,485.92Z"/><path class="cls-9" d="M459.74,486.1s2.82-3.77,5.18-3.54-2.36,6.61-2.51,5.63S459.74,486.1,459.74,486.1Z"/><path class="cls-10" d="M419.67,488.32a6.39,6.39,0,0,0-6.64,6.07,6.45,6.45,0,1,0,6.64-6.07Z"/><path class="cls-10" d="M419.77,491.61v-6.75s-.4-3.93,2-3.93,1.88,4.09,1.88,4.09l-1.09,6.59Z"/><path class="cls-10" d="M419.36,491.61l.11-6.75s.45-3.93-2.24-3.93-2,4.09-2,4.09l1.09,6.59Z"/><path class="cls-9" d="M376.11,488.49a25.82,25.82,0,0,0-1.25,8.82c0,1.1.25,2.79,1.25,3.31a3.69,3.69,0,0,0,2.52,0,8.12,8.12,0,0,0,3.77-2.21c3.3-3.2,5-6.62,5-8.82,0-2.47-1.23-3.51-3.77-4.41C379.58,483.71,376.83,486.07,376.11,488.49Z"/><path class="cls-9" d="M381.09,486.1s1.2-4.68,2.51-4.46,2.57,5.74,0,5.74S381.09,486.1,381.09,486.1Z"/><path class="cls-9" d="M382.4,486.28s2.81-3.77,5.18-3.54-2.37,6.61-2.52,5.62S382.4,486.28,382.4,486.28Z"/><path class="cls-10" d="M342.33,488.49a6.39,6.39,0,0,0-6.65,6.08,6.45,6.45,0,1,0,6.65-6.08Z"/><path class="cls-10" d="M342.42,491.79V485s-.4-3.92,2-3.92,1.88,4.08,1.88,4.08l-1.08,6.6Z"/><path class="cls-10" d="M342,491.79l.11-6.76s.45-3.92-2.25-3.92-1.95,4.08-1.95,4.08l1.09,6.6Z"/><path class="cls-9" d="M685.57,489.5a25.88,25.88,0,0,0-1.25,8.83c0,1.1.25,2.79,1.25,3.31a3.69,3.69,0,0,0,2.52,0,8.12,8.12,0,0,0,3.77-2.21c3.3-3.21,5-6.62,5-8.82,0-2.47-1.23-3.51-3.77-4.42C689,484.73,686.29,487.09,685.57,489.5Z"/><path class="cls-9" d="M690.55,487.12s1.2-4.68,2.51-4.46,2.57,5.74.05,5.74S690.55,487.12,690.55,487.12Z"/><path class="cls-9" d="M691.86,487.3s2.81-3.77,5.18-3.54-2.37,6.6-2.52,5.62S691.86,487.3,691.86,487.3Z"/><path class="cls-10" d="M651.79,489.51a6.39,6.39,0,0,0-6.65,6.07,6.45,6.45,0,1,0,6.65-6.07Z"/><path class="cls-10" d="M651.88,492.81v-6.76s-.4-3.93,2-3.93,1.88,4.09,1.88,4.09l-1.08,6.6Z"/><path class="cls-10" d="M651.48,492.81l.11-6.76s.45-3.93-2.25-3.93-2,4.09-2,4.09l1.09,6.6Z"/><path class="cls-9" d="M608.48,489.16a25.82,25.82,0,0,0-1.25,8.82c0,1.1.25,2.79,1.25,3.31a3.69,3.69,0,0,0,2.52,0,8.18,8.18,0,0,0,3.77-2.21c3.29-3.2,5-6.61,5-8.82,0-2.47-1.24-3.51-3.77-4.41C612,484.38,609.2,486.74,608.48,489.16Z"/><path class="cls-9" d="M613.46,486.77s1.2-4.68,2.51-4.46,2.57,5.74,0,5.74S613.46,486.77,613.46,486.77Z"/><path class="cls-9" d="M614.77,487s2.81-3.77,5.17-3.54-2.36,6.61-2.51,5.62S614.77,487,614.77,487Z"/><path class="cls-10" d="M574.69,489.16a6.39,6.39,0,0,0-6.64,6.08,6.45,6.45,0,1,0,6.64-6.08Z"/><path class="cls-10" d="M574.79,492.46V485.7s-.4-3.92,2-3.92,1.88,4.08,1.88,4.08l-1.08,6.6Z"/><path class="cls-10" d="M574.38,492.46l.12-6.76s.45-3.92-2.25-3.92-2,4.08-2,4.08l1.09,6.6Z"/><path class="cls-9" d="M763.45,490.45a25.83,25.83,0,0,0-1.26,8.83c0,1.1.25,2.79,1.26,3.31a3.72,3.72,0,0,0,2.51,0,8.21,8.21,0,0,0,3.77-2.21c3.3-3.21,5-6.62,5-8.83,0-2.46-1.24-3.5-3.77-4.41C766.91,485.68,764.17,488,763.45,490.45Z"/><path class="cls-9" d="M768.42,488.06s1.21-4.67,2.52-4.45,2.56,5.74,0,5.74S768.42,488.06,768.42,488.06Z"/><path class="cls-9" d="M769.73,488.24s2.82-3.77,5.18-3.54-2.36,6.61-2.51,5.63S769.73,488.24,769.73,488.24Z"/><path class="cls-10" d="M729.66,490.45a6.41,6.41,0,0,0-6.64,6.08,6.45,6.45,0,1,0,6.64-6.08Z"/><path class="cls-10" d="M729.76,493.75V487s-.4-3.93,2-3.93,1.87,4.09,1.87,4.09l-1.08,6.59Z"/><path class="cls-10" d="M729.35,493.75l.11-6.75s.45-3.93-2.25-3.93-1.94,4.09-1.94,4.09l1.09,6.59Z"/><path class="cls-9" d="M799,113.05a25.83,25.83,0,0,0-1.26,8.83c0,1.1.25,2.79,1.26,3.31a3.72,3.72,0,0,0,2.51,0,8.21,8.21,0,0,0,3.77-2.21c3.3-3.21,5-6.62,5-8.83,0-2.46-1.24-3.5-3.77-4.41C802.46,108.28,799.71,110.63,799,113.05Z"/><path class="cls-9" d="M804,110.66s1.21-4.67,2.52-4.45,2.56,5.74,0,5.74S804,110.66,804,110.66Z"/><path class="cls-9" d="M805.27,110.84s2.82-3.77,5.18-3.54-2.36,6.61-2.51,5.63S805.27,110.84,805.27,110.84Z"/><path class="cls-10" d="M804.64,153.1a6.39,6.39,0,0,0-6.64,6.08,6.44,6.44,0,1,0,6.64-6.08Z"/><path class="cls-10" d="M804.74,156.4v-6.75s-.41-3.93,2-3.93,1.88,4.08,1.88,4.08l-1.08,6.6Z"/><path class="cls-10" d="M804.33,156.4l.11-6.75s.45-3.93-2.25-3.93-2,4.08-2,4.08l1.09,6.6Z"/><path class="cls-9" d="M799,191.32a25.76,25.76,0,0,0-1.26,8.82c0,1.11.25,2.79,1.26,3.31a3.66,3.66,0,0,0,2.51,0,8.13,8.13,0,0,0,3.77-2.2c3.3-3.21,5-6.62,5-8.83,0-2.47-1.24-3.51-3.77-4.41C802.46,186.55,799.71,188.9,799,191.32Z"/><path class="cls-9" d="M804,188.93s1.21-4.68,2.52-4.46,2.56,5.74,0,5.74S804,188.93,804,188.93Z"/><path class="cls-9" d="M805.27,189.11s2.82-3.77,5.18-3.54-2.36,6.61-2.51,5.63S805.27,189.11,805.27,189.11Z"/><path class="cls-10" d="M803.23,232a6.39,6.39,0,0,0-6.64,6.08,6.45,6.45,0,1,0,6.64-6.08Z"/><path class="cls-10" d="M803.33,235.27v-6.76s-.4-3.93,2-3.93,1.87,4.09,1.87,4.09l-1.08,6.6Z"/><path class="cls-10" d="M802.92,235.27l.11-6.76s.45-3.93-2.24-3.93-1.95,4.09-1.95,4.09l1.09,6.6Z"/><path class="cls-9" d="M797.58,271.59a25.82,25.82,0,0,0-1.25,8.82c0,1.11.25,2.79,1.25,3.31a3.69,3.69,0,0,0,2.52,0,8.13,8.13,0,0,0,3.77-2.2c3.3-3.21,5-6.62,5-8.83,0-2.47-1.24-3.5-3.77-4.41C801.05,266.82,798.3,269.17,797.58,271.59Z"/><path class="cls-9" d="M802.56,269.2s1.2-4.68,2.51-4.45,2.57,5.73.06,5.73S802.56,269.2,802.56,269.2Z"/><path class="cls-9" d="M803.87,269.38s2.82-3.77,5.18-3.54-2.36,6.61-2.52,5.63S803.87,269.38,803.87,269.38Z"/><path class="cls-10" d="M803.23,310.24a6.39,6.39,0,0,0-6.64,6.07,6.45,6.45,0,1,0,6.64-6.07Z"/><path class="cls-10" d="M803.33,313.53v-6.75s-.4-3.93,2-3.93,1.87,4.09,1.87,4.09l-1.08,6.59Z"/><path class="cls-10" d="M802.92,313.53l.11-6.75s.45-3.93-2.24-3.93-1.95,4.09-1.95,4.09l1.09,6.59Z"/><path class="cls-9" d="M797.58,348.45a25.88,25.88,0,0,0-1.25,8.83c0,1.1.25,2.79,1.25,3.31a3.75,3.75,0,0,0,2.52,0,8.21,8.21,0,0,0,3.77-2.21c3.3-3.21,5-6.62,5-8.83,0-2.46-1.24-3.5-3.77-4.41C801.05,343.68,798.3,346,797.58,348.45Z"/><path class="cls-9" d="M802.56,346.06s1.2-4.67,2.51-4.45,2.57,5.74.06,5.74S802.56,346.06,802.56,346.06Z"/><path class="cls-9" d="M803.87,346.24s2.82-3.77,5.18-3.54-2.36,6.61-2.52,5.63S803.87,346.24,803.87,346.24Z"/><path class="cls-10" d="M803.23,387a6.41,6.41,0,0,0-6.64,6.08,6.45,6.45,0,1,0,6.64-6.08Z"/><path class="cls-10" d="M803.33,390.29v-6.75s-.4-3.93,2-3.93,1.87,4.09,1.87,4.09l-1.08,6.59Z"/><path class="cls-10" d="M802.92,390.29l.11-6.75s.45-3.93-2.24-3.93-1.95,4.09-1.95,4.09l1.09,6.59Z"/><path class="cls-9" d="M797.58,426.61a25.93,25.93,0,0,0-1.25,8.83c0,1.1.25,2.79,1.25,3.31a3.69,3.69,0,0,0,2.52,0,8.12,8.12,0,0,0,3.77-2.21c3.3-3.21,5-6.62,5-8.82,0-2.47-1.24-3.51-3.77-4.42C801.05,421.84,798.3,424.2,797.58,426.61Z"/><path class="cls-9" d="M802.56,424.23s1.2-4.68,2.51-4.46,2.57,5.74.06,5.74S802.56,424.23,802.56,424.23Z"/><path class="cls-9" d="M803.87,424.41s2.82-3.77,5.18-3.54-2.36,6.61-2.52,5.62S803.87,424.41,803.87,424.41Z"/><path class="cls-10" d="M803.23,465.26a6.39,6.39,0,0,0-6.64,6.08,6.45,6.45,0,1,0,6.64-6.08Z"/><path class="cls-10" d="M803.33,468.56v-6.75s-.4-3.93,2-3.93,1.87,4.08,1.87,4.08l-1.08,6.6Z"/><path class="cls-10" d="M802.92,468.56l.11-6.75s.45-3.93-2.24-3.93-1.95,4.08-1.95,4.08l1.09,6.6Z"/><path class="cls-10" d="M654.72,52a6.39,6.39,0,0,0-6.64,6.08A6.44,6.44,0,1,0,654.72,52Z"/><path class="cls-10" d="M654.82,55.29V48.53s-.4-3.93,2-3.93,1.87,4.09,1.87,4.09l-1.08,6.6Z"/><path class="cls-10" d="M654.41,55.29l.11-6.76s.45-3.93-2.25-3.93-1.95,4.09-1.95,4.09l1.09,6.6Z"/><path class="cls-9" d="M611.16,52.16A25.81,25.81,0,0,0,609.9,61c0,1.11.25,2.8,1.26,3.31a3.61,3.61,0,0,0,2.51,0,8.13,8.13,0,0,0,3.77-2.2c3.3-3.21,5-6.62,5-8.83,0-2.47-1.24-3.5-3.77-4.41C614.63,47.39,611.88,49.74,611.16,52.16Z"/><path class="cls-9" d="M616.13,49.77s1.21-4.68,2.52-4.45,2.56,5.74.05,5.74S616.13,49.77,616.13,49.77Z"/><path class="cls-9" d="M617.44,50s2.82-3.77,5.18-3.54S620.26,53,620.11,52,617.44,50,617.44,50Z"/><path class="cls-10" d="M577.37,52.16a6.39,6.39,0,0,0-6.64,6.08,6.45,6.45,0,1,0,6.64-6.08Z"/><path class="cls-10" d="M577.47,55.46V48.71s-.4-3.93,2-3.93,1.87,4.08,1.87,4.08l-1.08,6.6Z"/><path class="cls-10" d="M577.06,55.46l.11-6.75s.45-3.93-2.24-3.93S573,48.86,573,48.86l1.09,6.6Z"/><path class="cls-9" d="M534.07,51.81a25.83,25.83,0,0,0-1.26,8.83c0,1.1.25,2.79,1.26,3.31a3.72,3.72,0,0,0,2.51,0,8.21,8.21,0,0,0,3.77-2.21c3.3-3.21,5-6.62,5-8.83,0-2.46-1.24-3.5-3.77-4.41C537.53,47,534.79,49.4,534.07,51.81Z"/><path class="cls-9" d="M539,49.42s1.21-4.67,2.52-4.45,2.56,5.74.05,5.74S539,49.42,539,49.42Z"/><path class="cls-9" d="M540.35,49.6s2.82-3.77,5.18-3.54-2.36,6.61-2.51,5.63S540.35,49.6,540.35,49.6Z"/><g class="cls-11"><line x1="391.93" y1="172.79" x2="738.9" y2="172.79"/><line class="cls-12" x1="391.93" y1="172.79" x2="392.43" y2="172.79"/><line class="cls-13" x1="393.43" y1="172.79" x2="737.9" y2="172.79"/><line class="cls-12" x1="738.4" y1="172.79" x2="738.9" y2="172.79"/></g><g class="cls-11"><line x1="391.93" y1="231.08" x2="738.9" y2="231.08"/><line class="cls-12" x1="391.93" y1="231.08" x2="392.43" y2="231.08"/><line class="cls-13" x1="393.43" y1="231.08" x2="737.9" y2="231.08"/><line class="cls-12" x1="738.4" y1="231.08" x2="738.9" y2="231.08"/></g><g class="cls-11"><line x1="391.93" y1="288.68" x2="738.9" y2="288.68"/><line class="cls-12" x1="391.93" y1="288.68" x2="392.43" y2="288.68"/><line class="cls-13" x1="393.43" y1="288.68" x2="737.9" y2="288.68"/><line class="cls-12" x1="738.4" y1="288.68" x2="738.9" y2="288.68"/></g><g class="cls-11"><line x1="391.93" y1="347.68" x2="738.9" y2="347.68"/><line class="cls-12" x1="391.93" y1="347.68" x2="392.43" y2="347.68"/><line class="cls-13" x1="393.43" y1="347.68" x2="737.9" y2="347.68"/><line class="cls-12" x1="738.4" y1="347.68" x2="738.9" y2="347.68"/></g><g class="cls-11"><line x1="391.93" y1="405.27" x2="738.9" y2="405.27"/><line class="cls-12" x1="391.93" y1="405.27" x2="392.43" y2="405.27"/><line class="cls-13" x1="393.43" y1="405.27" x2="737.9" y2="405.27"/><line class="cls-12" x1="738.4" y1="405.27" x2="738.9" y2="405.27"/></g></g></g></svg>